G04 start of page 6 for group -4063 idx -4063 *
G04 Title: (unknown), componentmask *
G04 Creator: pcb 4.0.2 *
G04 CreationDate: Thu Dec 31 16:53:41 2020 UTC *
G04 For: petersen *
G04 Format: Gerber/RS-274X *
G04 PCB-Dimensions (mil): 2000.00 1250.00 *
G04 PCB-Coordinate-Origin: lower left *
%MOIN*%
%FSLAX25Y25*%
%LNTOPMASK*%
%ADD40C,0.0001*%
%ADD39C,0.1500*%
%ADD38C,0.0760*%
%ADD37C,0.2997*%
G54D37*X17000Y17000D03*
Y108000D03*
X183000D03*
Y17000D03*
G54D38*X145000Y90000D03*
X140000Y80000D03*
X135000Y90000D03*
G54D39*X150000Y115000D03*
G54D38*X130000Y80000D03*
X125000Y90000D03*
X120000Y80000D03*
X110000D03*
X85000D03*
X75000D03*
X65000D03*
X55000D03*
X115000Y90000D03*
X90000D03*
X80000D03*
X70000D03*
X60000D03*
G54D39*X50000Y115000D03*
G54D40*G36*
X92844Y54100D02*X85156D01*
Y40900D01*
X92844D01*
Y54100D01*
G37*
G36*
X57819D02*X50132D01*
Y40900D01*
X57819D01*
Y54100D01*
G37*
G36*
X79868D02*X72181D01*
Y40900D01*
X79868D01*
Y54100D01*
G37*
G36*
X106816Y24752D02*X101098D01*
Y18248D01*
X106816D01*
Y24752D01*
G37*
G36*
X113902D02*X108184D01*
Y18248D01*
X113902D01*
Y24752D01*
G37*
G36*
X127819Y54100D02*X120132D01*
Y40900D01*
X127819D01*
Y54100D01*
G37*
G36*
X149868D02*X142181D01*
Y40900D01*
X149868D01*
Y54100D01*
G37*
G36*
X114892D02*X107205D01*
Y40900D01*
X114892D01*
Y54100D01*
G37*
G36*
X91773Y24752D02*X86055D01*
Y18248D01*
X91773D01*
Y24752D01*
G37*
G36*
X98859D02*X93141D01*
Y18248D01*
X98859D01*
Y24752D01*
G37*
G36*
X176121Y56284D02*Y51904D01*
X184595D01*
Y56284D01*
X176121D01*
G37*
G36*
X184945Y81752D02*X179227D01*
Y75248D01*
X184945D01*
Y81752D01*
G37*
G36*
X177859D02*X172141D01*
Y75248D01*
X177859D01*
Y81752D01*
G37*
G36*
X184902Y45752D02*X179184D01*
Y39248D01*
X184902D01*
Y45752D01*
G37*
G36*
X177816D02*X172098D01*
Y39248D01*
X177816D01*
Y45752D01*
G37*
G36*
X168405Y62190D02*Y57810D01*
X184595D01*
Y62190D01*
X168405D01*
G37*
G36*
X161946Y65025D02*Y54975D01*
X173886D01*
Y65025D01*
X161946D01*
G37*
G36*
X176850Y58115D02*X175006Y59959D01*
X171742Y56695D01*
X173586Y54851D01*
X176850Y58115D01*
G37*
G36*
X173586Y65149D02*X171742Y63305D01*
X175006Y60041D01*
X176850Y61885D01*
X173586Y65149D01*
G37*
G36*
X176121Y68096D02*Y63716D01*
X184595D01*
Y68096D01*
X176121D01*
G37*
M02*
