G04 start of page 12 for group -3984 idx -3984 *
G04 Title: (unknown), fab *
G04 Creator: pcb 4.0.2 *
G04 CreationDate: Thu Dec 31 16:53:41 2020 UTC *
G04 For: petersen *
G04 Format: Gerber/RS-274X *
G04 PCB-Dimensions (mil): 2000.00 1250.00 *
G04 PCB-Coordinate-Origin: lower left *
%MOIN*%
%FSLAX25Y25*%
%LNFAB*%
%ADD51C,0.0100*%
%ADD50C,0.0075*%
%ADD49C,0.0060*%
%ADD48R,0.0080X0.0080*%
G54D48*X182200Y108000D02*G75*G03X183800Y108000I800J0D01*G01*
G75*G03X182200Y108000I-800J0D01*G01*
X16200Y17000D02*G75*G03X17800Y17000I800J0D01*G01*
G75*G03X16200Y17000I-800J0D01*G01*
Y108000D02*G75*G03X17800Y108000I800J0D01*G01*
G75*G03X16200Y108000I-800J0D01*G01*
X182200Y17000D02*G75*G03X183800Y17000I800J0D01*G01*
G75*G03X182200Y17000I-800J0D01*G01*
X14200Y136250D02*G75*G03X15800Y136250I800J0D01*G01*
G75*G03X14200Y136250I-800J0D01*G01*
G54D49*X135000Y138500D02*X136500Y135500D01*
X138000Y138500D01*
X136500Y135500D02*Y132500D01*
X139800Y135800D02*X142050D01*
X139800Y132500D02*X142800D01*
X139800Y138500D02*Y132500D01*
Y138500D02*X142800D01*
X147600D02*X148350Y137750D01*
X145350Y138500D02*X147600D01*
X144600Y137750D02*X145350Y138500D01*
X144600Y137750D02*Y136250D01*
X145350Y135500D01*
X147600D01*
X148350Y134750D01*
Y133250D01*
X147600Y132500D02*X148350Y133250D01*
X145350Y132500D02*X147600D01*
X144600Y133250D02*X145350Y132500D01*
X98000Y134750D02*X101000Y138500D01*
X98000Y134750D02*X101750D01*
X101000Y138500D02*Y132500D01*
X45000Y133250D02*X45750Y132500D01*
X45000Y137750D02*Y133250D01*
Y137750D02*X45750Y138500D01*
X47250D01*
X48000Y137750D01*
Y133250D01*
X47250Y132500D02*X48000Y133250D01*
X45750Y132500D02*X47250D01*
X45000Y134000D02*X48000Y137000D01*
X49800Y132500D02*X50550D01*
X52350Y137300D02*X53550Y138500D01*
Y132500D01*
X52350D02*X54600D01*
X56400Y137750D02*X57150Y138500D01*
X59400D01*
X60150Y137750D01*
Y136250D01*
X56400Y132500D02*X60150Y136250D01*
X56400Y132500D02*X60150D01*
X62700D02*X64950Y135500D01*
Y137750D02*Y135500D01*
X64200Y138500D02*X64950Y137750D01*
X62700Y138500D02*X64200D01*
X61950Y137750D02*X62700Y138500D01*
X61950Y137750D02*Y136250D01*
X62700Y135500D01*
X64950D01*
X148800Y116200D02*X151200Y113800D01*
X148800D02*X151200Y116200D01*
X48800D02*X51200Y113800D01*
X48800D02*X51200Y116200D01*
X13800Y152450D02*X16200Y150050D01*
X13800D02*X16200Y152450D01*
X135000Y153500D02*X136500Y150500D01*
X138000Y153500D01*
X136500Y150500D02*Y147500D01*
X139800Y150800D02*X142050D01*
X139800Y147500D02*X142800D01*
X139800Y153500D02*Y147500D01*
Y153500D02*X142800D01*
X147600D02*X148350Y152750D01*
X145350Y153500D02*X147600D01*
X144600Y152750D02*X145350Y153500D01*
X144600Y152750D02*Y151250D01*
X145350Y150500D01*
X147600D01*
X148350Y149750D01*
Y148250D01*
X147600Y147500D02*X148350Y148250D01*
X145350Y147500D02*X147600D01*
X144600Y148250D02*X145350Y147500D01*
X98000Y152750D02*X98750Y153500D01*
X101000D01*
X101750Y152750D01*
Y151250D01*
X98000Y147500D02*X101750Y151250D01*
X98000Y147500D02*X101750D01*
X45000Y148250D02*X45750Y147500D01*
X45000Y152750D02*Y148250D01*
Y152750D02*X45750Y153500D01*
X47250D01*
X48000Y152750D01*
Y148250D01*
X47250Y147500D02*X48000Y148250D01*
X45750Y147500D02*X47250D01*
X45000Y149000D02*X48000Y152000D01*
X49800Y147500D02*X50550D01*
X52350Y152300D02*X53550Y153500D01*
Y147500D01*
X52350D02*X54600D01*
X56400Y152750D02*X57150Y153500D01*
X59400D01*
X60150Y152750D01*
Y151250D01*
X56400Y147500D02*X60150Y151250D01*
X56400Y147500D02*X60150D01*
X61950Y148250D02*X62700Y147500D01*
X61950Y149450D02*Y148250D01*
Y149450D02*X63000Y150500D01*
X63900D01*
X64950Y149450D01*
Y148250D01*
X64200Y147500D02*X64950Y148250D01*
X62700Y147500D02*X64200D01*
X61950Y151550D02*X63000Y150500D01*
X61950Y152750D02*Y151550D01*
Y152750D02*X62700Y153500D01*
X64200D01*
X64950Y152750D01*
Y151550D01*
X63900Y150500D02*X64950Y151550D01*
X145000Y91600D02*Y88400D01*
X143400Y90000D02*X146600D01*
X140000Y81600D02*Y78400D01*
X138400Y80000D02*X141600D01*
X135000Y91600D02*Y88400D01*
X133400Y90000D02*X136600D01*
X130000Y81600D02*Y78400D01*
X128400Y80000D02*X131600D01*
X125000Y91600D02*Y88400D01*
X123400Y90000D02*X126600D01*
X120000Y81600D02*Y78400D01*
X118400Y80000D02*X121600D01*
X115000Y91600D02*Y88400D01*
X113400Y90000D02*X116600D01*
X110000Y81600D02*Y78400D01*
X108400Y80000D02*X111600D01*
X90000Y91600D02*Y88400D01*
X88400Y90000D02*X91600D01*
X85000Y81600D02*Y78400D01*
X83400Y80000D02*X86600D01*
X80000Y91600D02*Y88400D01*
X78400Y90000D02*X81600D01*
X75000Y81600D02*Y78400D01*
X73400Y80000D02*X76600D01*
X70000Y91600D02*Y88400D01*
X68400Y90000D02*X71600D01*
X65000Y81600D02*Y78400D01*
X63400Y80000D02*X66600D01*
X60000Y91600D02*Y88400D01*
X58400Y90000D02*X61600D01*
X55000Y81600D02*Y78400D01*
X53400Y80000D02*X56600D01*
X15000Y167850D02*Y164650D01*
X13400Y166250D02*X16600D01*
X135000Y168500D02*X136500Y165500D01*
X138000Y168500D01*
X136500Y165500D02*Y162500D01*
X139800Y165800D02*X142050D01*
X139800Y162500D02*X142800D01*
X139800Y168500D02*Y162500D01*
Y168500D02*X142800D01*
X147600D02*X148350Y167750D01*
X145350Y168500D02*X147600D01*
X144600Y167750D02*X145350Y168500D01*
X144600Y167750D02*Y166250D01*
X145350Y165500D01*
X147600D01*
X148350Y164750D01*
Y163250D01*
X147600Y162500D02*X148350Y163250D01*
X145350Y162500D02*X147600D01*
X144600Y163250D02*X145350Y162500D01*
X98000Y167300D02*X99200Y168500D01*
Y162500D01*
X98000D02*X100250D01*
X104300Y168500D02*X105050Y167750D01*
X102800Y168500D02*X104300D01*
X102050Y167750D02*X102800Y168500D01*
X102050Y167750D02*Y163250D01*
X102800Y162500D01*
X104300Y165800D02*X105050Y165050D01*
X102050Y165800D02*X104300D01*
X102800Y162500D02*X104300D01*
X105050Y163250D01*
Y165050D02*Y163250D01*
X45000D02*X45750Y162500D01*
X45000Y167750D02*Y163250D01*
Y167750D02*X45750Y168500D01*
X47250D01*
X48000Y167750D01*
Y163250D01*
X47250Y162500D02*X48000Y163250D01*
X45750Y162500D02*X47250D01*
X45000Y164000D02*X48000Y167000D01*
X49800Y162500D02*X50550D01*
X52350Y163250D02*X53100Y162500D01*
X52350Y167750D02*Y163250D01*
Y167750D02*X53100Y168500D01*
X54600D01*
X55350Y167750D01*
Y163250D01*
X54600Y162500D02*X55350Y163250D01*
X53100Y162500D02*X54600D01*
X52350Y164000D02*X55350Y167000D01*
X57150Y167750D02*X57900Y168500D01*
X59400D01*
X60150Y167750D01*
X59400Y162500D02*X60150Y163250D01*
X57900Y162500D02*X59400D01*
X57150Y163250D02*X57900Y162500D01*
Y165800D02*X59400D01*
X60150Y167750D02*Y166550D01*
Y165050D02*Y163250D01*
Y165050D02*X59400Y165800D01*
X60150Y166550D02*X59400Y165800D01*
X61950Y168500D02*X64950D01*
X61950D02*Y165500D01*
X62700Y166250D01*
X64200D01*
X64950Y165500D01*
Y163250D01*
X64200Y162500D02*X64950Y163250D01*
X62700Y162500D02*X64200D01*
X61950Y163250D02*X62700Y162500D01*
X115000Y102500D02*Y100900D01*
Y102500D02*X116387Y103300D01*
X115000Y102500D02*X113613Y103300D01*
X111500Y102500D02*Y100900D01*
Y102500D02*X112887Y103300D01*
X111500Y102500D02*X110113Y103300D01*
X110000Y65000D02*Y63400D01*
Y65000D02*X111387Y65800D01*
X110000Y65000D02*X108613Y65800D01*
X106500Y65000D02*Y63400D01*
Y65000D02*X107887Y65800D01*
X106500Y65000D02*X105113Y65800D01*
X83500Y21500D02*Y19900D01*
Y21500D02*X84887Y22300D01*
X83500Y21500D02*X82113Y22300D01*
X80000Y21500D02*Y19900D01*
Y21500D02*X81387Y22300D01*
X80000Y21500D02*X78613Y22300D01*
X46000Y52000D02*Y50400D01*
Y52000D02*X47387Y52800D01*
X46000Y52000D02*X44613Y52800D01*
X46000Y47500D02*Y45900D01*
Y47500D02*X47387Y48300D01*
X46000Y47500D02*X44613Y48300D01*
X46000Y43000D02*Y41400D01*
Y43000D02*X47387Y43800D01*
X46000Y43000D02*X44613Y43800D01*
X160000Y64500D02*Y62900D01*
Y64500D02*X161387Y65300D01*
X160000Y64500D02*X158613Y65300D01*
X160000Y60000D02*Y58400D01*
Y60000D02*X161387Y60800D01*
X160000Y60000D02*X158613Y60800D01*
X160000Y55500D02*Y53900D01*
Y55500D02*X161387Y56300D01*
X160000Y55500D02*X158613Y56300D01*
X156500Y64500D02*Y62900D01*
Y64500D02*X157887Y65300D01*
X156500Y64500D02*X155113Y65300D01*
X156500Y60000D02*Y58400D01*
Y60000D02*X157887Y60800D01*
X156500Y60000D02*X155113Y60800D01*
X156500Y55500D02*Y53900D01*
Y55500D02*X157887Y56300D01*
X156500Y55500D02*X155113Y56300D01*
X166500Y67500D02*Y65900D01*
Y67500D02*X167887Y68300D01*
X166500Y67500D02*X165113Y68300D01*
X163000Y67500D02*Y65900D01*
Y67500D02*X164387Y68300D01*
X163000Y67500D02*X161613Y68300D01*
X166500Y52500D02*Y50900D01*
Y52500D02*X167887Y53300D01*
X166500Y52500D02*X165113Y53300D01*
X163000Y52500D02*Y50900D01*
Y52500D02*X164387Y53300D01*
X163000Y52500D02*X161613Y53300D01*
X186500Y38000D02*Y36400D01*
Y38000D02*X187887Y38800D01*
X186500Y38000D02*X185113Y38800D01*
X186500Y47500D02*Y45900D01*
Y47500D02*X187887Y48300D01*
X186500Y47500D02*X185113Y48300D01*
X186500Y74000D02*Y72400D01*
Y74000D02*X187887Y74800D01*
X186500Y74000D02*X185113Y74800D01*
X186500Y83500D02*Y81900D01*
Y83500D02*X187887Y84300D01*
X186500Y83500D02*X185113Y84300D01*
X15000Y181250D02*Y179650D01*
Y181250D02*X16387Y182050D01*
X15000Y181250D02*X13613Y182050D01*
X135000Y183500D02*X136500Y180500D01*
X138000Y183500D01*
X136500Y180500D02*Y177500D01*
X139800Y180800D02*X142050D01*
X139800Y177500D02*X142800D01*
X139800Y183500D02*Y177500D01*
Y183500D02*X142800D01*
X147600D02*X148350Y182750D01*
X145350Y183500D02*X147600D01*
X144600Y182750D02*X145350Y183500D01*
X144600Y182750D02*Y181250D01*
X145350Y180500D01*
X147600D01*
X148350Y179750D01*
Y178250D01*
X147600Y177500D02*X148350Y178250D01*
X145350Y177500D02*X147600D01*
X144600Y178250D02*X145350Y177500D01*
X98000Y182750D02*X98750Y183500D01*
X101000D01*
X101750Y182750D01*
Y181250D01*
X98000Y177500D02*X101750Y181250D01*
X98000Y177500D02*X101750D01*
X103550Y182750D02*X104300Y183500D01*
X105800D01*
X106550Y182750D01*
X105800Y177500D02*X106550Y178250D01*
X104300Y177500D02*X105800D01*
X103550Y178250D02*X104300Y177500D01*
Y180800D02*X105800D01*
X106550Y182750D02*Y181550D01*
Y180050D02*Y178250D01*
Y180050D02*X105800Y180800D01*
X106550Y181550D02*X105800Y180800D01*
X45000Y178250D02*X45750Y177500D01*
X45000Y182750D02*Y178250D01*
Y182750D02*X45750Y183500D01*
X47250D01*
X48000Y182750D01*
Y178250D01*
X47250Y177500D02*X48000Y178250D01*
X45750Y177500D02*X47250D01*
X45000Y179000D02*X48000Y182000D01*
X49800Y177500D02*X50550D01*
X52350Y178250D02*X53100Y177500D01*
X52350Y182750D02*Y178250D01*
Y182750D02*X53100Y183500D01*
X54600D01*
X55350Y182750D01*
Y178250D01*
X54600Y177500D02*X55350Y178250D01*
X53100Y177500D02*X54600D01*
X52350Y179000D02*X55350Y182000D01*
X57150Y182300D02*X58350Y183500D01*
Y177500D01*
X57150D02*X59400D01*
X61200Y182750D02*X61950Y183500D01*
X64200D01*
X64950Y182750D01*
Y181250D01*
X61200Y177500D02*X64950Y181250D01*
X61200Y177500D02*X64950D01*
X3000Y198500D02*X3750Y197750D01*
X750Y198500D02*X3000D01*
X0Y197750D02*X750Y198500D01*
X0Y197750D02*Y196250D01*
X750Y195500D01*
X3000D01*
X3750Y194750D01*
Y193250D01*
X3000Y192500D02*X3750Y193250D01*
X750Y192500D02*X3000D01*
X0Y193250D02*X750Y192500D01*
X5550Y195500D02*Y193250D01*
X6300Y192500D01*
X8550Y195500D02*Y191000D01*
X7800Y190250D02*X8550Y191000D01*
X6300Y190250D02*X7800D01*
X5550Y191000D02*X6300Y190250D01*
Y192500D02*X7800D01*
X8550Y193250D01*
X11100Y194750D02*Y192500D01*
Y194750D02*X11850Y195500D01*
X12600D01*
X13350Y194750D01*
Y192500D01*
Y194750D02*X14100Y195500D01*
X14850D01*
X15600Y194750D01*
Y192500D01*
X10350Y195500D02*X11100Y194750D01*
X17400Y198500D02*Y192500D01*
Y193250D02*X18150Y192500D01*
X19650D01*
X20400Y193250D01*
Y194750D02*Y193250D01*
X19650Y195500D02*X20400Y194750D01*
X18150Y195500D02*X19650D01*
X17400Y194750D02*X18150Y195500D01*
X22200Y194750D02*Y193250D01*
Y194750D02*X22950Y195500D01*
X24450D01*
X25200Y194750D01*
Y193250D01*
X24450Y192500D02*X25200Y193250D01*
X22950Y192500D02*X24450D01*
X22200Y193250D02*X22950Y192500D01*
X27000Y198500D02*Y193250D01*
X27750Y192500D01*
X0Y189250D02*X29250D01*
X41750Y198500D02*Y192500D01*
X43700Y198500D02*X44750Y197450D01*
Y193550D01*
X43700Y192500D02*X44750Y193550D01*
X41000Y192500D02*X43700D01*
X41000Y198500D02*X43700D01*
G54D50*X46550Y197000D02*Y196850D01*
G54D49*Y194750D02*Y192500D01*
X50300Y195500D02*X51050Y194750D01*
X48800Y195500D02*X50300D01*
X48050Y194750D02*X48800Y195500D01*
X48050Y194750D02*Y193250D01*
X48800Y192500D01*
X51050Y195500D02*Y193250D01*
X51800Y192500D01*
X48800D02*X50300D01*
X51050Y193250D01*
X54350Y194750D02*Y192500D01*
Y194750D02*X55100Y195500D01*
X55850D01*
X56600Y194750D01*
Y192500D01*
Y194750D02*X57350Y195500D01*
X58100D01*
X58850Y194750D01*
Y192500D01*
X53600Y195500D02*X54350Y194750D01*
X60650Y192500D02*X61400D01*
X65900Y193250D02*X66650Y192500D01*
X65900Y197750D02*X66650Y198500D01*
X65900Y197750D02*Y193250D01*
X68450Y198500D02*X69950D01*
X69200D02*Y192500D01*
X68450D02*X69950D01*
X72500Y194750D02*Y192500D01*
Y194750D02*X73250Y195500D01*
X74000D01*
X74750Y194750D01*
Y192500D01*
X71750Y195500D02*X72500Y194750D01*
X77300Y195500D02*X79550D01*
X76550Y194750D02*X77300Y195500D01*
X76550Y194750D02*Y193250D01*
X77300Y192500D01*
X79550D01*
X81350Y198500D02*Y192500D01*
Y194750D02*X82100Y195500D01*
X83600D01*
X84350Y194750D01*
Y192500D01*
X86150Y198500D02*X86900Y197750D01*
Y193250D01*
X86150Y192500D02*X86900Y193250D01*
X41000Y189250D02*X88700D01*
X96050Y192500D02*X98000D01*
X95000Y193550D02*X96050Y192500D01*
X95000Y197450D02*Y193550D01*
Y197450D02*X96050Y198500D01*
X98000D01*
X99800Y194750D02*Y193250D01*
Y194750D02*X100550Y195500D01*
X102050D01*
X102800Y194750D01*
Y193250D01*
X102050Y192500D02*X102800Y193250D01*
X100550Y192500D02*X102050D01*
X99800Y193250D02*X100550Y192500D01*
X104600Y195500D02*Y193250D01*
X105350Y192500D01*
X106850D01*
X107600Y193250D01*
Y195500D02*Y193250D01*
X110150Y194750D02*Y192500D01*
Y194750D02*X110900Y195500D01*
X111650D01*
X112400Y194750D01*
Y192500D01*
X109400Y195500D02*X110150Y194750D01*
X114950Y198500D02*Y193250D01*
X115700Y192500D01*
X114200Y196250D02*X115700D01*
X95000Y189250D02*X117200D01*
X130750Y198500D02*Y192500D01*
X130000Y198500D02*X133000D01*
X133750Y197750D01*
Y196250D01*
X133000Y195500D02*X133750Y196250D01*
X130750Y195500D02*X133000D01*
X135550Y198500D02*Y193250D01*
X136300Y192500D01*
X140050Y195500D02*X140800Y194750D01*
X138550Y195500D02*X140050D01*
X137800Y194750D02*X138550Y195500D01*
X137800Y194750D02*Y193250D01*
X138550Y192500D01*
X140800Y195500D02*Y193250D01*
X141550Y192500D01*
X138550D02*X140050D01*
X140800Y193250D01*
X144100Y198500D02*Y193250D01*
X144850Y192500D01*
X143350Y196250D02*X144850D01*
X147100Y192500D02*X149350D01*
X146350Y193250D02*X147100Y192500D01*
X146350Y194750D02*Y193250D01*
Y194750D02*X147100Y195500D01*
X148600D01*
X149350Y194750D01*
X146350Y194000D02*X149350D01*
Y194750D02*Y194000D01*
X154150Y198500D02*Y192500D01*
X153400D02*X154150Y193250D01*
X151900Y192500D02*X153400D01*
X151150Y193250D02*X151900Y192500D01*
X151150Y194750D02*Y193250D01*
Y194750D02*X151900Y195500D01*
X153400D01*
X154150Y194750D01*
X157450Y195500D02*Y194750D01*
Y193250D02*Y192500D01*
X155950Y197750D02*Y197000D01*
Y197750D02*X156700Y198500D01*
X158200D01*
X158950Y197750D01*
Y197000D01*
X157450Y195500D02*X158950Y197000D01*
X130000Y189250D02*X160750D01*
X0Y213500D02*X3000D01*
X1500D02*Y207500D01*
X4800Y213500D02*Y207500D01*
Y209750D02*X5550Y210500D01*
X7050D01*
X7800Y209750D01*
Y207500D01*
X10350D02*X12600D01*
X9600Y208250D02*X10350Y207500D01*
X9600Y209750D02*Y208250D01*
Y209750D02*X10350Y210500D01*
X11850D01*
X12600Y209750D01*
X9600Y209000D02*X12600D01*
Y209750D02*Y209000D01*
X15150Y209750D02*Y207500D01*
Y209750D02*X15900Y210500D01*
X17400D01*
X14400D02*X15150Y209750D01*
X19950Y207500D02*X22200D01*
X19200Y208250D02*X19950Y207500D01*
X19200Y209750D02*Y208250D01*
Y209750D02*X19950Y210500D01*
X21450D01*
X22200Y209750D01*
X19200Y209000D02*X22200D01*
Y209750D02*Y209000D01*
X28950Y210500D02*X29700Y209750D01*
X27450Y210500D02*X28950D01*
X26700Y209750D02*X27450Y210500D01*
X26700Y209750D02*Y208250D01*
X27450Y207500D01*
X29700Y210500D02*Y208250D01*
X30450Y207500D01*
X27450D02*X28950D01*
X29700Y208250D01*
X33000Y209750D02*Y207500D01*
Y209750D02*X33750Y210500D01*
X35250D01*
X32250D02*X33000Y209750D01*
X37800Y207500D02*X40050D01*
X37050Y208250D02*X37800Y207500D01*
X37050Y209750D02*Y208250D01*
Y209750D02*X37800Y210500D01*
X39300D01*
X40050Y209750D01*
X37050Y209000D02*X40050D01*
Y209750D02*Y209000D01*
X44550Y209750D02*X47550Y213500D01*
X44550Y209750D02*X48300D01*
X47550Y213500D02*Y207500D01*
X55800Y213500D02*Y207500D01*
X55050D02*X55800Y208250D01*
X53550Y207500D02*X55050D01*
X52800Y208250D02*X53550Y207500D01*
X52800Y209750D02*Y208250D01*
Y209750D02*X53550Y210500D01*
X55050D01*
X55800Y209750D01*
G54D50*X57600Y212000D02*Y211850D01*
G54D49*Y209750D02*Y207500D01*
X59850Y212750D02*Y207500D01*
Y212750D02*X60600Y213500D01*
X61350D01*
X59100Y210500D02*X60600D01*
X63600Y212750D02*Y207500D01*
Y212750D02*X64350Y213500D01*
X65100D01*
X62850Y210500D02*X64350D01*
X67350Y207500D02*X69600D01*
X66600Y208250D02*X67350Y207500D01*
X66600Y209750D02*Y208250D01*
Y209750D02*X67350Y210500D01*
X68850D01*
X69600Y209750D01*
X66600Y209000D02*X69600D01*
Y209750D02*Y209000D01*
X72150Y209750D02*Y207500D01*
Y209750D02*X72900Y210500D01*
X74400D01*
X71400D02*X72150Y209750D01*
X76950Y207500D02*X79200D01*
X76200Y208250D02*X76950Y207500D01*
X76200Y209750D02*Y208250D01*
Y209750D02*X76950Y210500D01*
X78450D01*
X79200Y209750D01*
X76200Y209000D02*X79200D01*
Y209750D02*Y209000D01*
X81750Y209750D02*Y207500D01*
Y209750D02*X82500Y210500D01*
X83250D01*
X84000Y209750D01*
Y207500D01*
X81000Y210500D02*X81750Y209750D01*
X86550Y213500D02*Y208250D01*
X87300Y207500D01*
X85800Y211250D02*X87300D01*
X94500Y213500D02*Y207500D01*
X93750D02*X94500Y208250D01*
X92250Y207500D02*X93750D01*
X91500Y208250D02*X92250Y207500D01*
X91500Y209750D02*Y208250D01*
Y209750D02*X92250Y210500D01*
X93750D01*
X94500Y209750D01*
X97050D02*Y207500D01*
Y209750D02*X97800Y210500D01*
X99300D01*
X96300D02*X97050Y209750D01*
G54D50*X101100Y212000D02*Y211850D01*
G54D49*Y209750D02*Y207500D01*
X102600Y213500D02*Y208250D01*
X103350Y207500D01*
X104850Y213500D02*Y208250D01*
X105600Y207500D01*
X110550D02*X112800D01*
X113550Y208250D01*
X112800Y209000D02*X113550Y208250D01*
X110550Y209000D02*X112800D01*
X109800Y209750D02*X110550Y209000D01*
X109800Y209750D02*X110550Y210500D01*
X112800D01*
X113550Y209750D01*
X109800Y208250D02*X110550Y207500D01*
G54D50*X115350Y212000D02*Y211850D01*
G54D49*Y209750D02*Y207500D01*
X116850Y210500D02*X119850D01*
X116850Y207500D02*X119850Y210500D01*
X116850Y207500D02*X119850D01*
X122400D02*X124650D01*
X121650Y208250D02*X122400Y207500D01*
X121650Y209750D02*Y208250D01*
Y209750D02*X122400Y210500D01*
X123900D01*
X124650Y209750D01*
X121650Y209000D02*X124650D01*
Y209750D02*Y209000D01*
X127200Y207500D02*X129450D01*
X130200Y208250D01*
X129450Y209000D02*X130200Y208250D01*
X127200Y209000D02*X129450D01*
X126450Y209750D02*X127200Y209000D01*
X126450Y209750D02*X127200Y210500D01*
X129450D01*
X130200Y209750D01*
X126450Y208250D02*X127200Y207500D01*
X134700Y210500D02*Y208250D01*
X135450Y207500D01*
X136950D01*
X137700Y208250D01*
Y210500D02*Y208250D01*
X140250Y207500D02*X142500D01*
X143250Y208250D01*
X142500Y209000D02*X143250Y208250D01*
X140250Y209000D02*X142500D01*
X139500Y209750D02*X140250Y209000D01*
X139500Y209750D02*X140250Y210500D01*
X142500D01*
X143250Y209750D01*
X139500Y208250D02*X140250Y207500D01*
X145800D02*X148050D01*
X145050Y208250D02*X145800Y207500D01*
X145050Y209750D02*Y208250D01*
Y209750D02*X145800Y210500D01*
X147300D01*
X148050Y209750D01*
X145050Y209000D02*X148050D01*
Y209750D02*Y209000D01*
X152850Y213500D02*Y207500D01*
X152100D02*X152850Y208250D01*
X150600Y207500D02*X152100D01*
X149850Y208250D02*X150600Y207500D01*
X149850Y209750D02*Y208250D01*
Y209750D02*X150600Y210500D01*
X152100D01*
X152850Y209750D01*
G54D50*X157350Y212000D02*Y211850D01*
G54D49*Y209750D02*Y207500D01*
X159600Y209750D02*Y207500D01*
Y209750D02*X160350Y210500D01*
X161100D01*
X161850Y209750D01*
Y207500D01*
X158850Y210500D02*X159600Y209750D01*
X167100Y213500D02*Y208250D01*
X167850Y207500D01*
X166350Y211250D02*X167850D01*
X169350Y213500D02*Y207500D01*
Y209750D02*X170100Y210500D01*
X171600D01*
X172350Y209750D01*
Y207500D01*
G54D50*X174150Y212000D02*Y211850D01*
G54D49*Y209750D02*Y207500D01*
X176400D02*X178650D01*
X179400Y208250D01*
X178650Y209000D02*X179400Y208250D01*
X176400Y209000D02*X178650D01*
X175650Y209750D02*X176400Y209000D01*
X175650Y209750D02*X176400Y210500D01*
X178650D01*
X179400Y209750D01*
X175650Y208250D02*X176400Y207500D01*
X183900Y213500D02*Y208250D01*
X184650Y207500D01*
X188400Y210500D02*X189150Y209750D01*
X186900Y210500D02*X188400D01*
X186150Y209750D02*X186900Y210500D01*
X186150Y209750D02*Y208250D01*
X186900Y207500D01*
X189150Y210500D02*Y208250D01*
X189900Y207500D01*
X186900D02*X188400D01*
X189150Y208250D01*
X191700Y210500D02*Y208250D01*
X192450Y207500D01*
X194700Y210500D02*Y206000D01*
X193950Y205250D02*X194700Y206000D01*
X192450Y205250D02*X193950D01*
X191700Y206000D02*X192450Y205250D01*
Y207500D02*X193950D01*
X194700Y208250D01*
X196500Y209750D02*Y208250D01*
Y209750D02*X197250Y210500D01*
X198750D01*
X199500Y209750D01*
Y208250D01*
X198750Y207500D02*X199500Y208250D01*
X197250Y207500D02*X198750D01*
X196500Y208250D02*X197250Y207500D01*
X201300Y210500D02*Y208250D01*
X202050Y207500D01*
X203550D01*
X204300Y208250D01*
Y210500D02*Y208250D01*
X206850Y213500D02*Y208250D01*
X207600Y207500D01*
X206100Y211250D02*X207600D01*
X209100Y206000D02*X210600Y207500D01*
X215100Y209750D02*X218100Y213500D01*
X215100Y209750D02*X218850D01*
X218100Y213500D02*Y207500D01*
X220650Y213500D02*X223650D01*
X220650D02*Y210500D01*
X221400Y211250D01*
X222900D01*
X223650Y210500D01*
Y208250D01*
X222900Y207500D02*X223650Y208250D01*
X221400Y207500D02*X222900D01*
X220650Y208250D02*X221400Y207500D01*
X228150Y213500D02*Y207500D01*
Y209750D02*X228900Y210500D01*
X230400D01*
X231150Y209750D01*
Y207500D01*
X232950Y209750D02*Y208250D01*
Y209750D02*X233700Y210500D01*
X235200D01*
X235950Y209750D01*
Y208250D01*
X235200Y207500D02*X235950Y208250D01*
X233700Y207500D02*X235200D01*
X232950Y208250D02*X233700Y207500D01*
X237750Y213500D02*Y208250D01*
X238500Y207500D01*
X240750D02*X243000D01*
X240000Y208250D02*X240750Y207500D01*
X240000Y209750D02*Y208250D01*
Y209750D02*X240750Y210500D01*
X242250D01*
X243000Y209750D01*
X240000Y209000D02*X243000D01*
Y209750D02*Y209000D01*
X245550Y207500D02*X247800D01*
X248550Y208250D01*
X247800Y209000D02*X248550Y208250D01*
X245550Y209000D02*X247800D01*
X244800Y209750D02*X245550Y209000D01*
X244800Y209750D02*X245550Y210500D01*
X247800D01*
X248550Y209750D01*
X244800Y208250D02*X245550Y207500D01*
X253800Y213500D02*Y208250D01*
X254550Y207500D01*
X253050Y211250D02*X254550D01*
X256050Y209750D02*Y208250D01*
Y209750D02*X256800Y210500D01*
X258300D01*
X259050Y209750D01*
Y208250D01*
X258300Y207500D02*X259050Y208250D01*
X256800Y207500D02*X258300D01*
X256050Y208250D02*X256800Y207500D01*
X261600Y213500D02*Y208250D01*
X262350Y207500D01*
X260850Y211250D02*X262350D01*
X266100Y210500D02*X266850Y209750D01*
X264600Y210500D02*X266100D01*
X263850Y209750D02*X264600Y210500D01*
X263850Y209750D02*Y208250D01*
X264600Y207500D01*
X266850Y210500D02*Y208250D01*
X267600Y207500D01*
X264600D02*X266100D01*
X266850Y208250D01*
X269400Y213500D02*Y208250D01*
X270150Y207500D01*
G54D51*X0Y125000D02*X180000D01*
X179500D02*X200000D01*
X0D02*Y0D01*
X200000D01*
Y125000D01*
G54D49*X13675Y-9500D02*X16675D01*
X17425Y-8750D01*
Y-6950D02*Y-8750D01*
X16675Y-6200D02*X17425Y-6950D01*
X14425Y-6200D02*X16675D01*
X14425Y-3500D02*Y-9500D01*
X13675Y-3500D02*X16675D01*
X17425Y-4250D01*
Y-5450D01*
X16675Y-6200D02*X17425Y-5450D01*
X19225Y-7250D02*Y-8750D01*
Y-7250D02*X19975Y-6500D01*
X21475D01*
X22225Y-7250D01*
Y-8750D01*
X21475Y-9500D02*X22225Y-8750D01*
X19975Y-9500D02*X21475D01*
X19225Y-8750D02*X19975Y-9500D01*
X26275Y-6500D02*X27025Y-7250D01*
X24775Y-6500D02*X26275D01*
X24025Y-7250D02*X24775Y-6500D01*
X24025Y-7250D02*Y-8750D01*
X24775Y-9500D01*
X27025Y-6500D02*Y-8750D01*
X27775Y-9500D01*
X24775D02*X26275D01*
X27025Y-8750D01*
X30325Y-7250D02*Y-9500D01*
Y-7250D02*X31075Y-6500D01*
X32575D01*
X29575D02*X30325Y-7250D01*
X37375Y-3500D02*Y-9500D01*
X36625D02*X37375Y-8750D01*
X35125Y-9500D02*X36625D01*
X34375Y-8750D02*X35125Y-9500D01*
X34375Y-7250D02*Y-8750D01*
Y-7250D02*X35125Y-6500D01*
X36625D01*
X37375Y-7250D01*
X41875D02*Y-8750D01*
Y-7250D02*X42625Y-6500D01*
X44125D01*
X44875Y-7250D01*
Y-8750D01*
X44125Y-9500D02*X44875Y-8750D01*
X42625Y-9500D02*X44125D01*
X41875Y-8750D02*X42625Y-9500D01*
X46675Y-6500D02*Y-8750D01*
X47425Y-9500D01*
X48925D01*
X49675Y-8750D01*
Y-6500D02*Y-8750D01*
X52225Y-3500D02*Y-8750D01*
X52975Y-9500D01*
X51475Y-5750D02*X52975D01*
X54475Y-3500D02*Y-8750D01*
X55225Y-9500D01*
G54D50*X56725Y-5000D02*Y-5150D01*
G54D49*Y-7250D02*Y-9500D01*
X58975Y-7250D02*Y-9500D01*
Y-7250D02*X59725Y-6500D01*
X60475D01*
X61225Y-7250D01*
Y-9500D01*
X58225Y-6500D02*X58975Y-7250D01*
X63775Y-9500D02*X66025D01*
X63025Y-8750D02*X63775Y-9500D01*
X63025Y-7250D02*Y-8750D01*
Y-7250D02*X63775Y-6500D01*
X65275D01*
X66025Y-7250D01*
X63025Y-8000D02*X66025D01*
Y-7250D02*Y-8000D01*
G54D50*X70525Y-5000D02*Y-5150D01*
G54D49*Y-7250D02*Y-9500D01*
X72775D02*X75025D01*
X75775Y-8750D01*
X75025Y-8000D02*X75775Y-8750D01*
X72775Y-8000D02*X75025D01*
X72025Y-7250D02*X72775Y-8000D01*
X72025Y-7250D02*X72775Y-6500D01*
X75025D01*
X75775Y-7250D01*
X72025Y-8750D02*X72775Y-9500D01*
X81025Y-3500D02*Y-8750D01*
X81775Y-9500D01*
X80275Y-5750D02*X81775D01*
X83275Y-3500D02*Y-9500D01*
Y-7250D02*X84025Y-6500D01*
X85525D01*
X86275Y-7250D01*
Y-9500D01*
X88825D02*X91075D01*
X88075Y-8750D02*X88825Y-9500D01*
X88075Y-7250D02*Y-8750D01*
Y-7250D02*X88825Y-6500D01*
X90325D01*
X91075Y-7250D01*
X88075Y-8000D02*X91075D01*
Y-7250D02*Y-8000D01*
X96325Y-6500D02*X98575D01*
X95575Y-7250D02*X96325Y-6500D01*
X95575Y-7250D02*Y-8750D01*
X96325Y-9500D01*
X98575D01*
X101125D02*X103375D01*
X100375Y-8750D02*X101125Y-9500D01*
X100375Y-7250D02*Y-8750D01*
Y-7250D02*X101125Y-6500D01*
X102625D01*
X103375Y-7250D01*
X100375Y-8000D02*X103375D01*
Y-7250D02*Y-8000D01*
X105925Y-7250D02*Y-9500D01*
Y-7250D02*X106675Y-6500D01*
X107425D01*
X108175Y-7250D01*
Y-9500D01*
X105175Y-6500D02*X105925Y-7250D01*
X110725Y-3500D02*Y-8750D01*
X111475Y-9500D01*
X109975Y-5750D02*X111475D01*
X113725Y-9500D02*X115975D01*
X112975Y-8750D02*X113725Y-9500D01*
X112975Y-7250D02*Y-8750D01*
Y-7250D02*X113725Y-6500D01*
X115225D01*
X115975Y-7250D01*
X112975Y-8000D02*X115975D01*
Y-7250D02*Y-8000D01*
X118525Y-7250D02*Y-9500D01*
Y-7250D02*X119275Y-6500D01*
X120775D01*
X117775D02*X118525Y-7250D01*
X122575Y-3500D02*Y-8750D01*
X123325Y-9500D01*
G54D50*X124825Y-5000D02*Y-5150D01*
G54D49*Y-7250D02*Y-9500D01*
X127075Y-7250D02*Y-9500D01*
Y-7250D02*X127825Y-6500D01*
X128575D01*
X129325Y-7250D01*
Y-9500D01*
X126325Y-6500D02*X127075Y-7250D01*
X131875Y-9500D02*X134125D01*
X131125Y-8750D02*X131875Y-9500D01*
X131125Y-7250D02*Y-8750D01*
Y-7250D02*X131875Y-6500D01*
X133375D01*
X134125Y-7250D01*
X131125Y-8000D02*X134125D01*
Y-7250D02*Y-8000D01*
X138625Y-7250D02*Y-8750D01*
Y-7250D02*X139375Y-6500D01*
X140875D01*
X141625Y-7250D01*
Y-8750D01*
X140875Y-9500D02*X141625Y-8750D01*
X139375Y-9500D02*X140875D01*
X138625Y-8750D02*X139375Y-9500D01*
X144175Y-4250D02*Y-9500D01*
Y-4250D02*X144925Y-3500D01*
X145675D01*
X143425Y-6500D02*X144925D01*
X150625Y-3500D02*Y-8750D01*
X151375Y-9500D01*
X149875Y-5750D02*X151375D01*
X152875Y-3500D02*Y-9500D01*
Y-7250D02*X153625Y-6500D01*
X155125D01*
X155875Y-7250D01*
Y-9500D01*
G54D50*X157675Y-5000D02*Y-5150D01*
G54D49*Y-7250D02*Y-9500D01*
X159925D02*X162175D01*
X162925Y-8750D01*
X162175Y-8000D02*X162925Y-8750D01*
X159925Y-8000D02*X162175D01*
X159175Y-7250D02*X159925Y-8000D01*
X159175Y-7250D02*X159925Y-6500D01*
X162175D01*
X162925Y-7250D01*
X159175Y-8750D02*X159925Y-9500D01*
X168175Y-7250D02*Y-11750D01*
X167425Y-6500D02*X168175Y-7250D01*
X168925Y-6500D01*
X170425D01*
X171175Y-7250D01*
Y-8750D01*
X170425Y-9500D02*X171175Y-8750D01*
X168925Y-9500D02*X170425D01*
X168175Y-8750D02*X168925Y-9500D01*
X175225Y-6500D02*X175975Y-7250D01*
X173725Y-6500D02*X175225D01*
X172975Y-7250D02*X173725Y-6500D01*
X172975Y-7250D02*Y-8750D01*
X173725Y-9500D01*
X175975Y-6500D02*Y-8750D01*
X176725Y-9500D01*
X173725D02*X175225D01*
X175975Y-8750D01*
X179275Y-3500D02*Y-8750D01*
X180025Y-9500D01*
X178525Y-5750D02*X180025D01*
X181525Y-3500D02*Y-9500D01*
Y-7250D02*X182275Y-6500D01*
X183775D01*
X184525Y-7250D01*
Y-9500D01*
X200750Y153500D02*Y147500D01*
X202700Y153500D02*X203750Y152450D01*
Y148550D01*
X202700Y147500D02*X203750Y148550D01*
X200000Y147500D02*X202700D01*
X200000Y153500D02*X202700D01*
X207800Y150500D02*X208550Y149750D01*
X206300Y150500D02*X207800D01*
X205550Y149750D02*X206300Y150500D01*
X205550Y149750D02*Y148250D01*
X206300Y147500D01*
X208550Y150500D02*Y148250D01*
X209300Y147500D01*
X206300D02*X207800D01*
X208550Y148250D01*
X211850Y153500D02*Y148250D01*
X212600Y147500D01*
X211100Y151250D02*X212600D01*
X214850Y147500D02*X217100D01*
X214100Y148250D02*X214850Y147500D01*
X214100Y149750D02*Y148250D01*
Y149750D02*X214850Y150500D01*
X216350D01*
X217100Y149750D01*
X214100Y149000D02*X217100D01*
Y149750D02*Y149000D01*
X218900Y151250D02*X219650D01*
X218900Y149750D02*X219650D01*
X224150Y153500D02*X227150D01*
X225650D02*Y147500D01*
X228950Y153500D02*Y147500D01*
Y149750D02*X229700Y150500D01*
X231200D01*
X231950Y149750D01*
Y147500D01*
X233750Y150500D02*Y148250D01*
X234500Y147500D01*
X236000D01*
X236750Y148250D01*
Y150500D02*Y148250D01*
X242000Y153500D02*Y147500D01*
X243950Y153500D02*X245000Y152450D01*
Y148550D01*
X243950Y147500D02*X245000Y148550D01*
X241250Y147500D02*X243950D01*
X241250Y153500D02*X243950D01*
X247550Y147500D02*X249800D01*
X246800Y148250D02*X247550Y147500D01*
X246800Y149750D02*Y148250D01*
Y149750D02*X247550Y150500D01*
X249050D01*
X249800Y149750D01*
X246800Y149000D02*X249800D01*
Y149750D02*Y149000D01*
X252350Y150500D02*X254600D01*
X251600Y149750D02*X252350Y150500D01*
X251600Y149750D02*Y148250D01*
X252350Y147500D01*
X254600D01*
X259100Y152750D02*X259850Y153500D01*
X261350D01*
X262100Y152750D01*
X261350Y147500D02*X262100Y148250D01*
X259850Y147500D02*X261350D01*
X259100Y148250D02*X259850Y147500D01*
Y150800D02*X261350D01*
X262100Y152750D02*Y151550D01*
Y150050D02*Y148250D01*
Y150050D02*X261350Y150800D01*
X262100Y151550D02*X261350Y150800D01*
X263900Y152300D02*X265100Y153500D01*
Y147500D01*
X263900D02*X266150D01*
X270650Y152300D02*X271850Y153500D01*
Y147500D01*
X270650D02*X272900D01*
X276950Y153500D02*X277700Y152750D01*
X275450Y153500D02*X276950D01*
X274700Y152750D02*X275450Y153500D01*
X274700Y152750D02*Y148250D01*
X275450Y147500D01*
X276950Y150800D02*X277700Y150050D01*
X274700Y150800D02*X276950D01*
X275450Y147500D02*X276950D01*
X277700Y148250D01*
Y150050D02*Y148250D01*
X279500Y151250D02*X280250D01*
X279500Y149750D02*X280250D01*
X282050Y153500D02*X285050D01*
X282050D02*Y150500D01*
X282800Y151250D01*
X284300D01*
X285050Y150500D01*
Y148250D01*
X284300Y147500D02*X285050Y148250D01*
X282800Y147500D02*X284300D01*
X282050Y148250D02*X282800Y147500D01*
X286850Y152750D02*X287600Y153500D01*
X289100D01*
X289850Y152750D01*
X289100Y147500D02*X289850Y148250D01*
X287600Y147500D02*X289100D01*
X286850Y148250D02*X287600Y147500D01*
Y150800D02*X289100D01*
X289850Y152750D02*Y151550D01*
Y150050D02*Y148250D01*
Y150050D02*X289100Y150800D01*
X289850Y151550D02*X289100Y150800D01*
X291650Y151250D02*X292400D01*
X291650Y149750D02*X292400D01*
X294200D02*X297200Y153500D01*
X294200Y149750D02*X297950D01*
X297200Y153500D02*Y147500D01*
X299750Y152300D02*X300950Y153500D01*
Y147500D01*
X299750D02*X302000D01*
X306500Y152750D02*X307250Y153500D01*
X309500D01*
X310250Y152750D01*
Y151250D01*
X306500Y147500D02*X310250Y151250D01*
X306500Y147500D02*X310250D01*
X312050Y148250D02*X312800Y147500D01*
X312050Y152750D02*Y148250D01*
Y152750D02*X312800Y153500D01*
X314300D01*
X315050Y152750D01*
Y148250D01*
X314300Y147500D02*X315050Y148250D01*
X312800Y147500D02*X314300D01*
X312050Y149000D02*X315050Y152000D01*
X316850Y152750D02*X317600Y153500D01*
X319850D01*
X320600Y152750D01*
Y151250D01*
X316850Y147500D02*X320600Y151250D01*
X316850Y147500D02*X320600D01*
X322400Y148250D02*X323150Y147500D01*
X322400Y152750D02*Y148250D01*
Y152750D02*X323150Y153500D01*
X324650D01*
X325400Y152750D01*
Y148250D01*
X324650Y147500D02*X325400Y148250D01*
X323150Y147500D02*X324650D01*
X322400Y149000D02*X325400Y152000D01*
X329900Y153500D02*Y148250D01*
X330650Y147500D01*
X332150D01*
X332900Y148250D01*
Y153500D02*Y148250D01*
X334700Y153500D02*X337700D01*
X336200D02*Y147500D01*
X340550D02*X342500D01*
X339500Y148550D02*X340550Y147500D01*
X339500Y152450D02*Y148550D01*
Y152450D02*X340550Y153500D01*
X342500D01*
X200000Y167000D02*Y162500D01*
Y167000D02*X201050Y168500D01*
X202700D01*
X203750Y167000D01*
Y162500D01*
X200000Y165500D02*X203750D01*
X205550D02*Y163250D01*
X206300Y162500D01*
X207800D01*
X208550Y163250D01*
Y165500D02*Y163250D01*
X211100Y168500D02*Y163250D01*
X211850Y162500D01*
X210350Y166250D02*X211850D01*
X213350Y168500D02*Y162500D01*
Y164750D02*X214100Y165500D01*
X215600D01*
X216350Y164750D01*
Y162500D01*
X218150Y164750D02*Y163250D01*
Y164750D02*X218900Y165500D01*
X220400D01*
X221150Y164750D01*
Y163250D01*
X220400Y162500D02*X221150Y163250D01*
X218900Y162500D02*X220400D01*
X218150Y163250D02*X218900Y162500D01*
X223700Y164750D02*Y162500D01*
Y164750D02*X224450Y165500D01*
X225950D01*
X222950D02*X223700Y164750D01*
X227750Y166250D02*X228500D01*
X227750Y164750D02*X228500D01*
X233000Y168500D02*Y162500D01*
Y168500D02*X235250Y165500D01*
X237500Y168500D01*
Y162500D01*
G54D50*X239300Y167000D02*Y166850D01*
G54D49*Y164750D02*Y162500D01*
X241550Y165500D02*X243800D01*
X240800Y164750D02*X241550Y165500D01*
X240800Y164750D02*Y163250D01*
X241550Y162500D01*
X243800D01*
X245600Y168500D02*Y162500D01*
Y164750D02*X246350Y165500D01*
X247850D01*
X248600Y164750D01*
Y162500D01*
X252650Y165500D02*X253400Y164750D01*
X251150Y165500D02*X252650D01*
X250400Y164750D02*X251150Y165500D01*
X250400Y164750D02*Y163250D01*
X251150Y162500D01*
X253400Y165500D02*Y163250D01*
X254150Y162500D01*
X251150D02*X252650D01*
X253400Y163250D01*
X256700Y162500D02*X258950D01*
X255950Y163250D02*X256700Y162500D01*
X255950Y164750D02*Y163250D01*
Y164750D02*X256700Y165500D01*
X258200D01*
X258950Y164750D01*
X255950Y164000D02*X258950D01*
Y164750D02*Y164000D01*
X260750Y168500D02*Y163250D01*
X261500Y162500D01*
X266450Y168500D02*Y162500D01*
X265700Y168500D02*X268700D01*
X269450Y167750D01*
Y166250D01*
X268700Y165500D02*X269450Y166250D01*
X266450Y165500D02*X268700D01*
X272000Y162500D02*X274250D01*
X271250Y163250D02*X272000Y162500D01*
X271250Y164750D02*Y163250D01*
Y164750D02*X272000Y165500D01*
X273500D01*
X274250Y164750D01*
X271250Y164000D02*X274250D01*
Y164750D02*Y164000D01*
X276800Y168500D02*Y163250D01*
X277550Y162500D01*
X276050Y166250D02*X277550D01*
X279800Y162500D02*X282050D01*
X279050Y163250D02*X279800Y162500D01*
X279050Y164750D02*Y163250D01*
Y164750D02*X279800Y165500D01*
X281300D01*
X282050Y164750D01*
X279050Y164000D02*X282050D01*
Y164750D02*Y164000D01*
X284600Y164750D02*Y162500D01*
Y164750D02*X285350Y165500D01*
X286850D01*
X283850D02*X284600Y164750D01*
X289400Y162500D02*X291650D01*
X292400Y163250D01*
X291650Y164000D02*X292400Y163250D01*
X289400Y164000D02*X291650D01*
X288650Y164750D02*X289400Y164000D01*
X288650Y164750D02*X289400Y165500D01*
X291650D01*
X292400Y164750D01*
X288650Y163250D02*X289400Y162500D01*
X294950D02*X297200D01*
X294200Y163250D02*X294950Y162500D01*
X294200Y164750D02*Y163250D01*
Y164750D02*X294950Y165500D01*
X296450D01*
X297200Y164750D01*
X294200Y164000D02*X297200D01*
Y164750D02*Y164000D01*
X299750Y164750D02*Y162500D01*
Y164750D02*X300500Y165500D01*
X301250D01*
X302000Y164750D01*
Y162500D01*
X299000Y165500D02*X299750Y164750D01*
X200000Y183500D02*X203000D01*
X201500D02*Y177500D01*
G54D50*X204800Y182000D02*Y181850D01*
G54D49*Y179750D02*Y177500D01*
X207050Y183500D02*Y178250D01*
X207800Y177500D01*
X206300Y181250D02*X207800D01*
X209300Y183500D02*Y178250D01*
X210050Y177500D01*
X212300D02*X214550D01*
X211550Y178250D02*X212300Y177500D01*
X211550Y179750D02*Y178250D01*
Y179750D02*X212300Y180500D01*
X213800D01*
X214550Y179750D01*
X211550Y179000D02*X214550D01*
Y179750D02*Y179000D01*
X216350Y181250D02*X217100D01*
X216350Y179750D02*X217100D01*
X221600Y178250D02*X222350Y177500D01*
X221600Y182750D02*X222350Y183500D01*
X221600Y182750D02*Y178250D01*
X224150Y180500D02*Y178250D01*
X224900Y177500D01*
X226400D01*
X227150Y178250D01*
Y180500D02*Y178250D01*
X229700Y179750D02*Y177500D01*
Y179750D02*X230450Y180500D01*
X231200D01*
X231950Y179750D01*
Y177500D01*
X228950Y180500D02*X229700Y179750D01*
X233750Y183500D02*Y177500D01*
Y179750D02*X236000Y177500D01*
X233750Y179750D02*X235250Y181250D01*
X238550Y179750D02*Y177500D01*
Y179750D02*X239300Y180500D01*
X240050D01*
X240800Y179750D01*
Y177500D01*
X237800Y180500D02*X238550Y179750D01*
X242600D02*Y178250D01*
Y179750D02*X243350Y180500D01*
X244850D01*
X245600Y179750D01*
Y178250D01*
X244850Y177500D02*X245600Y178250D01*
X243350Y177500D02*X244850D01*
X242600Y178250D02*X243350Y177500D01*
X247400Y180500D02*Y178250D01*
X248150Y177500D01*
X248900D01*
X249650Y178250D01*
Y180500D02*Y178250D01*
X250400Y177500D01*
X251150D01*
X251900Y178250D01*
Y180500D02*Y178250D01*
X254450Y179750D02*Y177500D01*
Y179750D02*X255200Y180500D01*
X255950D01*
X256700Y179750D01*
Y177500D01*
X253700Y180500D02*X254450Y179750D01*
X258500Y183500D02*X259250Y182750D01*
Y178250D01*
X258500Y177500D02*X259250Y178250D01*
X263750Y180500D02*X266750D01*
X271250Y183500D02*Y177500D01*
Y183500D02*X274250D01*
X271250Y180800D02*X273500D01*
X278300Y180500D02*X279050Y179750D01*
X276800Y180500D02*X278300D01*
X276050Y179750D02*X276800Y180500D01*
X276050Y179750D02*Y178250D01*
X276800Y177500D01*
X279050Y180500D02*Y178250D01*
X279800Y177500D01*
X276800D02*X278300D01*
X279050Y178250D01*
X281600Y183500D02*Y177500D01*
Y178250D02*X282350Y177500D01*
X283850D01*
X284600Y178250D01*
Y179750D02*Y178250D01*
X283850Y180500D02*X284600Y179750D01*
X282350Y180500D02*X283850D01*
X281600Y179750D02*X282350Y180500D01*
X287150Y179750D02*Y177500D01*
Y179750D02*X287900Y180500D01*
X289400D01*
X286400D02*X287150Y179750D01*
G54D50*X291200Y182000D02*Y181850D01*
G54D49*Y179750D02*Y177500D01*
X293450Y180500D02*X295700D01*
X292700Y179750D02*X293450Y180500D01*
X292700Y179750D02*Y178250D01*
X293450Y177500D01*
X295700D01*
X299750Y180500D02*X300500Y179750D01*
X298250Y180500D02*X299750D01*
X297500Y179750D02*X298250Y180500D01*
X297500Y179750D02*Y178250D01*
X298250Y177500D01*
X300500Y180500D02*Y178250D01*
X301250Y177500D01*
X298250D02*X299750D01*
X300500Y178250D01*
X303800Y183500D02*Y178250D01*
X304550Y177500D01*
X303050Y181250D02*X304550D01*
G54D50*X306050Y182000D02*Y181850D01*
G54D49*Y179750D02*Y177500D01*
X307550Y179750D02*Y178250D01*
Y179750D02*X308300Y180500D01*
X309800D01*
X310550Y179750D01*
Y178250D01*
X309800Y177500D02*X310550Y178250D01*
X308300Y177500D02*X309800D01*
X307550Y178250D02*X308300Y177500D01*
X313100Y179750D02*Y177500D01*
Y179750D02*X313850Y180500D01*
X314600D01*
X315350Y179750D01*
Y177500D01*
X312350Y180500D02*X313100Y179750D01*
X320600Y183500D02*Y177500D01*
X322550Y183500D02*X323600Y182450D01*
Y178550D01*
X322550Y177500D02*X323600Y178550D01*
X319850Y177500D02*X322550D01*
X319850Y183500D02*X322550D01*
X326150Y179750D02*Y177500D01*
Y179750D02*X326900Y180500D01*
X328400D01*
X325400D02*X326150Y179750D01*
X332450Y180500D02*X333200Y179750D01*
X330950Y180500D02*X332450D01*
X330200Y179750D02*X330950Y180500D01*
X330200Y179750D02*Y178250D01*
X330950Y177500D01*
X333200Y180500D02*Y178250D01*
X333950Y177500D01*
X330950D02*X332450D01*
X333200Y178250D01*
X335750Y180500D02*Y178250D01*
X336500Y177500D01*
X337250D01*
X338000Y178250D01*
Y180500D02*Y178250D01*
X338750Y177500D01*
X339500D01*
X340250Y178250D01*
Y180500D02*Y178250D01*
G54D50*X342050Y182000D02*Y181850D01*
G54D49*Y179750D02*Y177500D01*
X344300Y179750D02*Y177500D01*
Y179750D02*X345050Y180500D01*
X345800D01*
X346550Y179750D01*
Y177500D01*
X343550Y180500D02*X344300Y179750D01*
X350600Y180500D02*X351350Y179750D01*
X349100Y180500D02*X350600D01*
X348350Y179750D02*X349100Y180500D01*
X348350Y179750D02*Y178250D01*
X349100Y177500D01*
X350600D01*
X351350Y178250D01*
X348350Y176000D02*X349100Y175250D01*
X350600D01*
X351350Y176000D01*
Y180500D02*Y176000D01*
M02*
