G04 start of page 3 for group 1 idx 1 *
G04 Title: (unknown), bottom *
G04 Creator: pcb 4.0.2 *
G04 CreationDate: Thu Dec 31 16:53:41 2020 UTC *
G04 For: petersen *
G04 Format: Gerber/RS-274X *
G04 PCB-Dimensions (mil): 2000.00 1250.00 *
G04 PCB-Coordinate-Origin: lower left *
%MOIN*%
%FSLAX25Y25*%
%LNBOTTOM*%
%ADD31C,0.1280*%
%ADD30C,0.0350*%
%ADD29C,0.1285*%
%ADD28C,0.0120*%
%ADD27C,0.0260*%
%ADD26C,0.1440*%
%ADD25C,0.0700*%
%ADD24C,0.2937*%
%ADD23C,0.0250*%
%ADD22C,0.0001*%
G54D22*G36*
X144993Y108493D02*X145165Y108346D01*
X146266Y107671D01*
X147458Y107177D01*
X148713Y106876D01*
X150000Y106775D01*
X151287Y106876D01*
X152542Y107177D01*
X153734Y107671D01*
X154835Y108346D01*
X155816Y109184D01*
X156654Y110165D01*
X157329Y111266D01*
X157823Y112458D01*
X158124Y113713D01*
X158200Y115000D01*
X158124Y116287D01*
X157823Y117542D01*
X157329Y118734D01*
X156654Y119835D01*
X155816Y120816D01*
X154835Y121654D01*
X153734Y122329D01*
X152542Y122823D01*
X151803Y123000D01*
X178295D01*
X178138Y122962D01*
X175858Y122018D01*
X173753Y120728D01*
X171876Y119124D01*
X170272Y117247D01*
X168982Y115142D01*
X168038Y112862D01*
X167461Y110461D01*
X167268Y108000D01*
X167461Y105539D01*
X168038Y103138D01*
X168982Y100858D01*
X170272Y98753D01*
X171876Y96876D01*
X173753Y95272D01*
X175858Y93982D01*
X178138Y93038D01*
X180539Y92461D01*
X183000Y92268D01*
X185461Y92461D01*
X187862Y93038D01*
X190142Y93982D01*
X192247Y95272D01*
X194124Y96876D01*
X195728Y98753D01*
X197018Y100858D01*
X197962Y103138D01*
X198500Y105378D01*
Y19622D01*
X197962Y21862D01*
X197018Y24142D01*
X195728Y26247D01*
X194124Y28124D01*
X192247Y29728D01*
X190142Y31018D01*
X187862Y31962D01*
X185461Y32539D01*
X183000Y32732D01*
X180539Y32539D01*
X178138Y31962D01*
X175858Y31018D01*
X173753Y29728D01*
X171876Y28124D01*
X170272Y26247D01*
X168982Y24142D01*
X168038Y21862D01*
X167461Y19461D01*
X167268Y17000D01*
X167461Y14539D01*
X168038Y12138D01*
X168982Y9858D01*
X170272Y7753D01*
X171876Y5876D01*
X173753Y4272D01*
X175858Y2982D01*
X178138Y2038D01*
X180378Y1500D01*
X144993D01*
Y85487D01*
X145000Y85486D01*
X145706Y85542D01*
X146395Y85707D01*
X147049Y85978D01*
X147653Y86348D01*
X148192Y86808D01*
X148652Y87347D01*
X149022Y87951D01*
X149293Y88605D01*
X149458Y89294D01*
X149500Y90000D01*
X149458Y90706D01*
X149293Y91395D01*
X149022Y92049D01*
X148652Y92653D01*
X148192Y93192D01*
X147653Y93652D01*
X147049Y94022D01*
X146395Y94293D01*
X145706Y94458D01*
X145000Y94514D01*
X144993Y94513D01*
Y108493D01*
G37*
G36*
Y123000D02*X148197D01*
X147458Y122823D01*
X146266Y122329D01*
X145165Y121654D01*
X144993Y121507D01*
Y123000D01*
G37*
G36*
X143720Y85679D02*X144294Y85542D01*
X144993Y85487D01*
Y1500D01*
X143720D01*
Y77544D01*
X143771Y77583D01*
X143826Y77639D01*
X143870Y77704D01*
X144064Y78056D01*
X144221Y78426D01*
X144344Y78809D01*
X144433Y79200D01*
X144487Y79599D01*
X144504Y80000D01*
X144487Y80401D01*
X144433Y80800D01*
X144344Y81191D01*
X144221Y81574D01*
X144064Y81944D01*
X143874Y82298D01*
X143829Y82363D01*
X143774Y82420D01*
X143720Y82460D01*
Y85679D01*
G37*
G36*
Y109726D02*X144184Y109184D01*
X144993Y108493D01*
Y94513D01*
X144294Y94458D01*
X143720Y94321D01*
Y109726D01*
G37*
G36*
Y123000D02*X144993D01*
Y121507D01*
X144184Y120816D01*
X143720Y120274D01*
Y123000D01*
G37*
G36*
X140002D02*X143720D01*
Y120274D01*
X143346Y119835D01*
X142671Y118734D01*
X142177Y117542D01*
X141876Y116287D01*
X141775Y115000D01*
X141876Y113713D01*
X142177Y112458D01*
X142671Y111266D01*
X143346Y110165D01*
X143720Y109726D01*
Y94321D01*
X143605Y94293D01*
X142951Y94022D01*
X142347Y93652D01*
X141808Y93192D01*
X141348Y92653D01*
X140978Y92049D01*
X140707Y91395D01*
X140542Y90706D01*
X140486Y90000D01*
X140542Y89294D01*
X140707Y88605D01*
X140978Y87951D01*
X141348Y87347D01*
X141808Y86808D01*
X142347Y86348D01*
X142951Y85978D01*
X143605Y85707D01*
X143720Y85679D01*
Y82460D01*
X143710Y82468D01*
X143640Y82504D01*
X143565Y82530D01*
X143487Y82544D01*
X143408Y82545D01*
X143329Y82533D01*
X143254Y82510D01*
X143183Y82475D01*
X143118Y82429D01*
X143061Y82374D01*
X143013Y82311D01*
X142976Y82241D01*
X142951Y82166D01*
X142937Y82088D01*
X142936Y82008D01*
X142948Y81930D01*
X142971Y81854D01*
X143007Y81784D01*
X143157Y81510D01*
X143279Y81223D01*
X143375Y80926D01*
X143444Y80621D01*
X143486Y80312D01*
X143500Y80000D01*
X143486Y79688D01*
X143444Y79379D01*
X143375Y79074D01*
X143279Y78777D01*
X143157Y78490D01*
X143010Y78214D01*
X142974Y78145D01*
X142951Y78069D01*
X142940Y77991D01*
X142941Y77913D01*
X142954Y77835D01*
X142980Y77761D01*
X143016Y77691D01*
X143064Y77628D01*
X143120Y77573D01*
X143184Y77528D01*
X143255Y77493D01*
X143330Y77470D01*
X143408Y77459D01*
X143487Y77460D01*
X143564Y77473D01*
X143639Y77499D01*
X143708Y77535D01*
X143720Y77544D01*
Y1500D01*
X140002D01*
Y75496D01*
X140401Y75513D01*
X140800Y75567D01*
X141191Y75656D01*
X141574Y75779D01*
X141944Y75936D01*
X142298Y76126D01*
X142363Y76171D01*
X142420Y76226D01*
X142468Y76290D01*
X142504Y76360D01*
X142530Y76435D01*
X142544Y76513D01*
X142545Y76592D01*
X142533Y76671D01*
X142510Y76746D01*
X142475Y76817D01*
X142429Y76882D01*
X142374Y76939D01*
X142311Y76987D01*
X142241Y77024D01*
X142166Y77049D01*
X142088Y77063D01*
X142008Y77064D01*
X141930Y77052D01*
X141854Y77029D01*
X141784Y76993D01*
X141510Y76843D01*
X141223Y76721D01*
X140926Y76625D01*
X140621Y76556D01*
X140312Y76514D01*
X140002Y76500D01*
Y83500D01*
X140312Y83486D01*
X140621Y83444D01*
X140926Y83375D01*
X141223Y83279D01*
X141510Y83157D01*
X141786Y83010D01*
X141855Y82974D01*
X141931Y82951D01*
X142009Y82940D01*
X142087Y82941D01*
X142165Y82954D01*
X142239Y82980D01*
X142309Y83016D01*
X142372Y83064D01*
X142427Y83120D01*
X142472Y83184D01*
X142507Y83255D01*
X142530Y83330D01*
X142541Y83408D01*
X142540Y83487D01*
X142527Y83564D01*
X142501Y83639D01*
X142465Y83708D01*
X142417Y83771D01*
X142361Y83826D01*
X142296Y83870D01*
X141944Y84064D01*
X141574Y84221D01*
X141191Y84344D01*
X140800Y84433D01*
X140401Y84487D01*
X140002Y84504D01*
Y123000D01*
G37*
G36*
X136280D02*X140002D01*
Y84504D01*
X140000Y84504D01*
X139599Y84487D01*
X139200Y84433D01*
X138809Y84344D01*
X138426Y84221D01*
X138056Y84064D01*
X137702Y83874D01*
X137637Y83829D01*
X137580Y83774D01*
X137532Y83710D01*
X137496Y83640D01*
X137470Y83565D01*
X137456Y83487D01*
X137455Y83408D01*
X137467Y83329D01*
X137490Y83254D01*
X137525Y83183D01*
X137571Y83118D01*
X137626Y83061D01*
X137689Y83013D01*
X137759Y82976D01*
X137834Y82951D01*
X137912Y82937D01*
X137992Y82936D01*
X138070Y82948D01*
X138146Y82971D01*
X138216Y83007D01*
X138490Y83157D01*
X138777Y83279D01*
X139074Y83375D01*
X139379Y83444D01*
X139688Y83486D01*
X140000Y83500D01*
X140002Y83500D01*
Y76500D01*
X140000Y76500D01*
X139688Y76514D01*
X139379Y76556D01*
X139074Y76625D01*
X138777Y76721D01*
X138490Y76843D01*
X138214Y76990D01*
X138145Y77026D01*
X138069Y77049D01*
X137991Y77060D01*
X137913Y77059D01*
X137835Y77046D01*
X137761Y77020D01*
X137691Y76984D01*
X137628Y76936D01*
X137573Y76880D01*
X137528Y76816D01*
X137493Y76745D01*
X137470Y76670D01*
X137459Y76592D01*
X137460Y76513D01*
X137473Y76436D01*
X137499Y76361D01*
X137535Y76292D01*
X137583Y76229D01*
X137639Y76174D01*
X137704Y76130D01*
X138056Y75936D01*
X138426Y75779D01*
X138809Y75656D01*
X139200Y75567D01*
X139599Y75513D01*
X140000Y75496D01*
X140002Y75496D01*
Y1500D01*
X136280D01*
Y77540D01*
X136290Y77532D01*
X136360Y77496D01*
X136435Y77470D01*
X136513Y77456D01*
X136592Y77455D01*
X136671Y77467D01*
X136746Y77490D01*
X136817Y77525D01*
X136882Y77571D01*
X136939Y77626D01*
X136987Y77689D01*
X137024Y77759D01*
X137049Y77834D01*
X137063Y77912D01*
X137064Y77992D01*
X137052Y78070D01*
X137029Y78146D01*
X136993Y78216D01*
X136843Y78490D01*
X136721Y78777D01*
X136625Y79074D01*
X136556Y79379D01*
X136514Y79688D01*
X136500Y80000D01*
X136514Y80312D01*
X136556Y80621D01*
X136625Y80926D01*
X136721Y81223D01*
X136843Y81510D01*
X136990Y81786D01*
X137026Y81855D01*
X137049Y81931D01*
X137060Y82009D01*
X137059Y82087D01*
X137046Y82165D01*
X137020Y82239D01*
X136984Y82309D01*
X136936Y82372D01*
X136880Y82427D01*
X136816Y82472D01*
X136745Y82507D01*
X136670Y82530D01*
X136592Y82541D01*
X136513Y82540D01*
X136436Y82527D01*
X136361Y82501D01*
X136292Y82465D01*
X136280Y82456D01*
Y85679D01*
X136395Y85707D01*
X137049Y85978D01*
X137653Y86348D01*
X138192Y86808D01*
X138652Y87347D01*
X139022Y87951D01*
X139293Y88605D01*
X139458Y89294D01*
X139500Y90000D01*
X139458Y90706D01*
X139293Y91395D01*
X139022Y92049D01*
X138652Y92653D01*
X138192Y93192D01*
X137653Y93652D01*
X137049Y94022D01*
X136395Y94293D01*
X136280Y94321D01*
Y123000D01*
G37*
G36*
X129993D02*X136280D01*
Y94321D01*
X135706Y94458D01*
X135000Y94514D01*
X134294Y94458D01*
X133605Y94293D01*
X132951Y94022D01*
X132347Y93652D01*
X131808Y93192D01*
X131348Y92653D01*
X130978Y92049D01*
X130707Y91395D01*
X130542Y90706D01*
X130486Y90000D01*
X130542Y89294D01*
X130707Y88605D01*
X130978Y87951D01*
X131348Y87347D01*
X131808Y86808D01*
X132347Y86348D01*
X132951Y85978D01*
X133605Y85707D01*
X134294Y85542D01*
X135000Y85486D01*
X135706Y85542D01*
X136280Y85679D01*
Y82456D01*
X136229Y82417D01*
X136174Y82361D01*
X136130Y82296D01*
X135936Y81944D01*
X135779Y81574D01*
X135656Y81191D01*
X135567Y80800D01*
X135513Y80401D01*
X135496Y80000D01*
X135513Y79599D01*
X135567Y79200D01*
X135656Y78809D01*
X135779Y78426D01*
X135936Y78056D01*
X136126Y77702D01*
X136171Y77637D01*
X136226Y77580D01*
X136280Y77540D01*
Y1500D01*
X129993D01*
Y75487D01*
X130000Y75486D01*
X130706Y75542D01*
X131395Y75707D01*
X132049Y75978D01*
X132653Y76348D01*
X133192Y76808D01*
X133652Y77347D01*
X134022Y77951D01*
X134293Y78605D01*
X134458Y79294D01*
X134500Y80000D01*
X134458Y80706D01*
X134293Y81395D01*
X134022Y82049D01*
X133652Y82653D01*
X133192Y83192D01*
X132653Y83652D01*
X132049Y84022D01*
X131395Y84293D01*
X130706Y84458D01*
X130000Y84514D01*
X129993Y84513D01*
Y123000D01*
G37*
G36*
X123720D02*X129993D01*
Y84513D01*
X129294Y84458D01*
X128605Y84293D01*
X127951Y84022D01*
X127347Y83652D01*
X126808Y83192D01*
X126348Y82653D01*
X125978Y82049D01*
X125707Y81395D01*
X125542Y80706D01*
X125486Y80000D01*
X125542Y79294D01*
X125707Y78605D01*
X125978Y77951D01*
X126348Y77347D01*
X126808Y76808D01*
X127347Y76348D01*
X127951Y75978D01*
X128605Y75707D01*
X129294Y75542D01*
X129993Y75487D01*
Y1500D01*
X123720D01*
Y77544D01*
X123771Y77583D01*
X123826Y77639D01*
X123870Y77704D01*
X124064Y78056D01*
X124221Y78426D01*
X124344Y78809D01*
X124433Y79200D01*
X124487Y79599D01*
X124504Y80000D01*
X124487Y80401D01*
X124433Y80800D01*
X124344Y81191D01*
X124221Y81574D01*
X124064Y81944D01*
X123874Y82298D01*
X123829Y82363D01*
X123774Y82420D01*
X123720Y82460D01*
Y85679D01*
X124294Y85542D01*
X125000Y85486D01*
X125706Y85542D01*
X126395Y85707D01*
X127049Y85978D01*
X127653Y86348D01*
X128192Y86808D01*
X128652Y87347D01*
X129022Y87951D01*
X129293Y88605D01*
X129458Y89294D01*
X129500Y90000D01*
X129458Y90706D01*
X129293Y91395D01*
X129022Y92049D01*
X128652Y92653D01*
X128192Y93192D01*
X127653Y93652D01*
X127250Y93899D01*
Y94912D01*
X127257Y95000D01*
X127229Y95353D01*
X127146Y95697D01*
X127107Y95793D01*
X127011Y96025D01*
X126896Y96212D01*
X126826Y96327D01*
X126826Y96327D01*
X126596Y96596D01*
X126529Y96653D01*
X123720Y99462D01*
Y123000D01*
G37*
G36*
Y1500D02*X120002D01*
Y75496D01*
X120401Y75513D01*
X120800Y75567D01*
X121191Y75656D01*
X121574Y75779D01*
X121944Y75936D01*
X122298Y76126D01*
X122363Y76171D01*
X122420Y76226D01*
X122468Y76290D01*
X122504Y76360D01*
X122530Y76435D01*
X122544Y76513D01*
X122545Y76592D01*
X122533Y76671D01*
X122510Y76746D01*
X122475Y76817D01*
X122429Y76882D01*
X122374Y76939D01*
X122311Y76987D01*
X122241Y77024D01*
X122166Y77049D01*
X122088Y77063D01*
X122008Y77064D01*
X121930Y77052D01*
X121854Y77029D01*
X121784Y76993D01*
X121510Y76843D01*
X121223Y76721D01*
X120926Y76625D01*
X120621Y76556D01*
X120312Y76514D01*
X120002Y76500D01*
Y83500D01*
X120312Y83486D01*
X120621Y83444D01*
X120926Y83375D01*
X121223Y83279D01*
X121510Y83157D01*
X121786Y83010D01*
X121855Y82974D01*
X121931Y82951D01*
X122009Y82940D01*
X122087Y82941D01*
X122165Y82954D01*
X122239Y82980D01*
X122309Y83016D01*
X122372Y83064D01*
X122427Y83120D01*
X122472Y83184D01*
X122507Y83255D01*
X122530Y83330D01*
X122541Y83408D01*
X122540Y83487D01*
X122527Y83564D01*
X122501Y83639D01*
X122465Y83708D01*
X122417Y83771D01*
X122361Y83826D01*
X122296Y83870D01*
X121944Y84064D01*
X121574Y84221D01*
X121191Y84344D01*
X120800Y84433D01*
X120401Y84487D01*
X120002Y84504D01*
Y95750D01*
X121068D01*
X122750Y94068D01*
Y93899D01*
X122347Y93652D01*
X121808Y93192D01*
X121348Y92653D01*
X120978Y92049D01*
X120707Y91395D01*
X120542Y90706D01*
X120486Y90000D01*
X120542Y89294D01*
X120707Y88605D01*
X120978Y87951D01*
X121348Y87347D01*
X121808Y86808D01*
X122347Y86348D01*
X122951Y85978D01*
X123605Y85707D01*
X123720Y85679D01*
Y82460D01*
X123710Y82468D01*
X123640Y82504D01*
X123565Y82530D01*
X123487Y82544D01*
X123408Y82545D01*
X123329Y82533D01*
X123254Y82510D01*
X123183Y82475D01*
X123118Y82429D01*
X123061Y82374D01*
X123013Y82311D01*
X122976Y82241D01*
X122951Y82166D01*
X122937Y82088D01*
X122936Y82008D01*
X122948Y81930D01*
X122971Y81854D01*
X123007Y81784D01*
X123157Y81510D01*
X123279Y81223D01*
X123375Y80926D01*
X123444Y80621D01*
X123486Y80312D01*
X123500Y80000D01*
X123486Y79688D01*
X123444Y79379D01*
X123375Y79074D01*
X123279Y78777D01*
X123157Y78490D01*
X123010Y78214D01*
X122974Y78145D01*
X122951Y78069D01*
X122940Y77991D01*
X122941Y77913D01*
X122954Y77835D01*
X122980Y77761D01*
X123016Y77691D01*
X123064Y77628D01*
X123120Y77573D01*
X123184Y77528D01*
X123255Y77493D01*
X123330Y77470D01*
X123408Y77459D01*
X123487Y77460D01*
X123564Y77473D01*
X123639Y77499D01*
X123708Y77535D01*
X123720Y77544D01*
Y1500D01*
G37*
G36*
X120002Y123000D02*X123720D01*
Y99462D01*
X123653Y99529D01*
X123596Y99596D01*
X123327Y99826D01*
X123327Y99826D01*
X123212Y99896D01*
X123025Y100011D01*
X122793Y100107D01*
X122697Y100146D01*
X122353Y100229D01*
X122000Y100257D01*
X121912Y100250D01*
X120002D01*
Y123000D01*
G37*
G36*
Y1500D02*X116280D01*
Y77540D01*
X116290Y77532D01*
X116360Y77496D01*
X116435Y77470D01*
X116513Y77456D01*
X116592Y77455D01*
X116671Y77467D01*
X116746Y77490D01*
X116817Y77525D01*
X116882Y77571D01*
X116939Y77626D01*
X116987Y77689D01*
X117023Y77759D01*
X117049Y77834D01*
X117063Y77912D01*
X117064Y77992D01*
X117052Y78070D01*
X117029Y78146D01*
X116993Y78216D01*
X116843Y78490D01*
X116721Y78777D01*
X116625Y79074D01*
X116556Y79379D01*
X116514Y79688D01*
X116500Y80000D01*
X116514Y80312D01*
X116556Y80621D01*
X116625Y80926D01*
X116721Y81223D01*
X116843Y81510D01*
X116990Y81786D01*
X117026Y81855D01*
X117049Y81931D01*
X117060Y82009D01*
X117059Y82087D01*
X117046Y82165D01*
X117020Y82239D01*
X116984Y82309D01*
X116936Y82372D01*
X116880Y82427D01*
X116816Y82472D01*
X116745Y82507D01*
X116670Y82530D01*
X116592Y82541D01*
X116513Y82540D01*
X116436Y82527D01*
X116361Y82501D01*
X116292Y82465D01*
X116280Y82456D01*
Y85679D01*
X116395Y85707D01*
X117049Y85978D01*
X117653Y86348D01*
X118192Y86808D01*
X118652Y87347D01*
X119022Y87951D01*
X119293Y88605D01*
X119458Y89294D01*
X119500Y90000D01*
X119458Y90706D01*
X119293Y91395D01*
X119022Y92049D01*
X118652Y92653D01*
X118192Y93192D01*
X117653Y93652D01*
X117049Y94022D01*
X116395Y94293D01*
X116280Y94321D01*
Y95750D01*
X120002D01*
Y84504D01*
X120000Y84504D01*
X119599Y84487D01*
X119200Y84433D01*
X118809Y84344D01*
X118426Y84221D01*
X118056Y84064D01*
X117702Y83874D01*
X117637Y83829D01*
X117580Y83774D01*
X117532Y83710D01*
X117496Y83640D01*
X117470Y83565D01*
X117456Y83487D01*
X117455Y83408D01*
X117467Y83329D01*
X117490Y83254D01*
X117525Y83183D01*
X117571Y83118D01*
X117626Y83061D01*
X117689Y83013D01*
X117759Y82976D01*
X117834Y82951D01*
X117912Y82937D01*
X117992Y82936D01*
X118070Y82948D01*
X118146Y82971D01*
X118216Y83007D01*
X118490Y83157D01*
X118777Y83279D01*
X119074Y83375D01*
X119379Y83444D01*
X119688Y83486D01*
X120000Y83500D01*
X120002Y83500D01*
Y76500D01*
X120000Y76500D01*
X119688Y76514D01*
X119379Y76556D01*
X119074Y76625D01*
X118777Y76721D01*
X118490Y76843D01*
X118214Y76990D01*
X118145Y77026D01*
X118069Y77049D01*
X117991Y77060D01*
X117913Y77059D01*
X117835Y77046D01*
X117761Y77020D01*
X117691Y76984D01*
X117628Y76936D01*
X117573Y76880D01*
X117528Y76816D01*
X117493Y76745D01*
X117470Y76670D01*
X117459Y76592D01*
X117460Y76513D01*
X117473Y76436D01*
X117499Y76361D01*
X117535Y76292D01*
X117583Y76229D01*
X117639Y76174D01*
X117704Y76130D01*
X118056Y75936D01*
X118426Y75779D01*
X118809Y75656D01*
X119200Y75567D01*
X119599Y75513D01*
X120000Y75496D01*
X120002Y75496D01*
Y1500D01*
G37*
G36*
X116280D02*X109346D01*
Y62750D01*
X109520D01*
X109639Y62721D01*
X110000Y62693D01*
X110361Y62721D01*
X110713Y62806D01*
X111047Y62944D01*
X111356Y63134D01*
X111631Y63369D01*
X111866Y63644D01*
X112056Y63953D01*
X112194Y64287D01*
X112279Y64639D01*
X112300Y65000D01*
X112279Y65361D01*
X112250Y65480D01*
Y76101D01*
X112653Y76348D01*
X113192Y76808D01*
X113652Y77347D01*
X114022Y77951D01*
X114293Y78605D01*
X114458Y79294D01*
X114500Y80000D01*
X114458Y80706D01*
X114293Y81395D01*
X114022Y82049D01*
X113652Y82653D01*
X113192Y83192D01*
X112653Y83652D01*
X112049Y84022D01*
X111395Y84293D01*
X110706Y84458D01*
X110000Y84514D01*
X109346Y84462D01*
Y95750D01*
X116280D01*
Y94321D01*
X115706Y94458D01*
X115000Y94514D01*
X114294Y94458D01*
X113605Y94293D01*
X112951Y94022D01*
X112347Y93652D01*
X111808Y93192D01*
X111348Y92653D01*
X110978Y92049D01*
X110707Y91395D01*
X110542Y90706D01*
X110486Y90000D01*
X110542Y89294D01*
X110707Y88605D01*
X110978Y87951D01*
X111348Y87347D01*
X111808Y86808D01*
X112347Y86348D01*
X112951Y85978D01*
X113605Y85707D01*
X114294Y85542D01*
X115000Y85486D01*
X115706Y85542D01*
X116280Y85679D01*
Y82456D01*
X116229Y82417D01*
X116174Y82361D01*
X116130Y82296D01*
X115936Y81944D01*
X115779Y81574D01*
X115656Y81191D01*
X115567Y80800D01*
X115513Y80401D01*
X115496Y80000D01*
X115513Y79599D01*
X115567Y79200D01*
X115656Y78809D01*
X115779Y78426D01*
X115936Y78056D01*
X116126Y77702D01*
X116171Y77637D01*
X116226Y77580D01*
X116280Y77540D01*
Y1500D01*
G37*
G36*
X109346Y123000D02*X120002D01*
Y100250D01*
X115480D01*
X115713Y100306D01*
X116047Y100444D01*
X116356Y100634D01*
X116631Y100869D01*
X116866Y101144D01*
X117056Y101453D01*
X117194Y101787D01*
X117279Y102139D01*
X117300Y102500D01*
X117279Y102861D01*
X117194Y103213D01*
X117056Y103547D01*
X116866Y103856D01*
X116631Y104131D01*
X116356Y104366D01*
X116047Y104556D01*
X115713Y104694D01*
X115361Y104779D01*
X115000Y104807D01*
X114639Y104779D01*
X114520Y104750D01*
X111980D01*
X111861Y104779D01*
X111500Y104807D01*
X111139Y104779D01*
X111020Y104750D01*
X109346D01*
Y123000D01*
G37*
G36*
X88720Y95750D02*X109346D01*
Y84462D01*
X109294Y84458D01*
X108605Y84293D01*
X107951Y84022D01*
X107347Y83652D01*
X106808Y83192D01*
X106348Y82653D01*
X105978Y82049D01*
X105707Y81395D01*
X105542Y80706D01*
X105486Y80000D01*
X105542Y79294D01*
X105707Y78605D01*
X105978Y77951D01*
X106348Y77347D01*
X106808Y76808D01*
X107347Y76348D01*
X107750Y76101D01*
Y67250D01*
X106980D01*
X106861Y67279D01*
X106500Y67307D01*
X106139Y67279D01*
X105787Y67194D01*
X105453Y67056D01*
X105144Y66866D01*
X104869Y66631D01*
X104634Y66356D01*
X104444Y66047D01*
X104306Y65713D01*
X104221Y65361D01*
X104193Y65000D01*
X104221Y64639D01*
X104306Y64287D01*
X104444Y63953D01*
X104634Y63644D01*
X104869Y63369D01*
X105144Y63134D01*
X105453Y62944D01*
X105787Y62806D01*
X106139Y62721D01*
X106500Y62693D01*
X106861Y62721D01*
X106980Y62750D01*
X109346D01*
Y1500D01*
X88720D01*
Y77544D01*
X88771Y77583D01*
X88826Y77639D01*
X88870Y77704D01*
X89064Y78056D01*
X89221Y78426D01*
X89344Y78809D01*
X89433Y79200D01*
X89487Y79599D01*
X89504Y80000D01*
X89487Y80401D01*
X89433Y80800D01*
X89344Y81191D01*
X89221Y81574D01*
X89064Y81944D01*
X88874Y82298D01*
X88829Y82363D01*
X88774Y82420D01*
X88720Y82460D01*
Y85679D01*
X89294Y85542D01*
X90000Y85486D01*
X90706Y85542D01*
X91395Y85707D01*
X92049Y85978D01*
X92653Y86348D01*
X93192Y86808D01*
X93652Y87347D01*
X94022Y87951D01*
X94293Y88605D01*
X94458Y89294D01*
X94500Y90000D01*
X94458Y90706D01*
X94293Y91395D01*
X94022Y92049D01*
X93652Y92653D01*
X93192Y93192D01*
X92653Y93652D01*
X92049Y94022D01*
X91395Y94293D01*
X90706Y94458D01*
X90000Y94514D01*
X89294Y94458D01*
X88720Y94321D01*
Y95750D01*
G37*
G36*
X85002D02*X88720D01*
Y94321D01*
X88605Y94293D01*
X87951Y94022D01*
X87347Y93652D01*
X86808Y93192D01*
X86348Y92653D01*
X85978Y92049D01*
X85707Y91395D01*
X85542Y90706D01*
X85486Y90000D01*
X85542Y89294D01*
X85707Y88605D01*
X85978Y87951D01*
X86348Y87347D01*
X86808Y86808D01*
X87347Y86348D01*
X87951Y85978D01*
X88605Y85707D01*
X88720Y85679D01*
Y82460D01*
X88710Y82468D01*
X88640Y82504D01*
X88565Y82530D01*
X88487Y82544D01*
X88408Y82545D01*
X88329Y82533D01*
X88254Y82510D01*
X88183Y82475D01*
X88118Y82429D01*
X88061Y82374D01*
X88013Y82311D01*
X87976Y82241D01*
X87951Y82166D01*
X87937Y82088D01*
X87936Y82008D01*
X87948Y81930D01*
X87971Y81854D01*
X88007Y81784D01*
X88157Y81510D01*
X88279Y81223D01*
X88375Y80926D01*
X88444Y80621D01*
X88486Y80312D01*
X88500Y80000D01*
X88486Y79688D01*
X88444Y79379D01*
X88375Y79074D01*
X88279Y78777D01*
X88157Y78490D01*
X88010Y78214D01*
X87974Y78145D01*
X87951Y78069D01*
X87940Y77991D01*
X87941Y77913D01*
X87954Y77835D01*
X87980Y77761D01*
X88016Y77691D01*
X88064Y77628D01*
X88120Y77573D01*
X88184Y77528D01*
X88255Y77493D01*
X88330Y77470D01*
X88408Y77459D01*
X88487Y77460D01*
X88564Y77473D01*
X88639Y77499D01*
X88708Y77535D01*
X88720Y77544D01*
Y1500D01*
X85002D01*
Y75496D01*
X85401Y75513D01*
X85800Y75567D01*
X86191Y75656D01*
X86574Y75779D01*
X86944Y75936D01*
X87298Y76126D01*
X87363Y76171D01*
X87420Y76226D01*
X87468Y76290D01*
X87504Y76360D01*
X87530Y76435D01*
X87544Y76513D01*
X87545Y76592D01*
X87533Y76671D01*
X87510Y76746D01*
X87475Y76817D01*
X87429Y76882D01*
X87374Y76939D01*
X87311Y76987D01*
X87241Y77024D01*
X87166Y77049D01*
X87088Y77063D01*
X87008Y77064D01*
X86930Y77052D01*
X86854Y77029D01*
X86784Y76993D01*
X86510Y76843D01*
X86223Y76721D01*
X85926Y76625D01*
X85621Y76556D01*
X85312Y76514D01*
X85002Y76500D01*
Y83500D01*
X85312Y83486D01*
X85621Y83444D01*
X85926Y83375D01*
X86223Y83279D01*
X86510Y83157D01*
X86786Y83010D01*
X86855Y82974D01*
X86931Y82951D01*
X87009Y82940D01*
X87087Y82941D01*
X87165Y82954D01*
X87239Y82980D01*
X87309Y83016D01*
X87372Y83064D01*
X87427Y83120D01*
X87472Y83184D01*
X87507Y83255D01*
X87530Y83330D01*
X87541Y83408D01*
X87540Y83487D01*
X87527Y83564D01*
X87501Y83639D01*
X87465Y83708D01*
X87417Y83771D01*
X87361Y83826D01*
X87296Y83870D01*
X86944Y84064D01*
X86574Y84221D01*
X86191Y84344D01*
X85800Y84433D01*
X85401Y84487D01*
X85002Y84504D01*
Y95750D01*
G37*
G36*
Y123000D02*X109346D01*
Y104750D01*
X85002D01*
Y123000D01*
G37*
G36*
X81280Y95750D02*X85002D01*
Y84504D01*
X85000Y84504D01*
X84599Y84487D01*
X84200Y84433D01*
X83809Y84344D01*
X83426Y84221D01*
X83056Y84064D01*
X82702Y83874D01*
X82637Y83829D01*
X82580Y83774D01*
X82532Y83710D01*
X82496Y83640D01*
X82470Y83565D01*
X82456Y83487D01*
X82455Y83408D01*
X82467Y83329D01*
X82490Y83254D01*
X82525Y83183D01*
X82571Y83118D01*
X82626Y83061D01*
X82689Y83013D01*
X82759Y82976D01*
X82834Y82951D01*
X82912Y82937D01*
X82992Y82936D01*
X83070Y82948D01*
X83146Y82971D01*
X83216Y83007D01*
X83490Y83157D01*
X83777Y83279D01*
X84074Y83375D01*
X84379Y83444D01*
X84688Y83486D01*
X85000Y83500D01*
X85002Y83500D01*
Y76500D01*
X85000Y76500D01*
X84688Y76514D01*
X84379Y76556D01*
X84074Y76625D01*
X83777Y76721D01*
X83490Y76843D01*
X83214Y76990D01*
X83145Y77026D01*
X83069Y77049D01*
X82991Y77060D01*
X82913Y77059D01*
X82835Y77046D01*
X82761Y77020D01*
X82691Y76984D01*
X82628Y76936D01*
X82573Y76880D01*
X82528Y76816D01*
X82493Y76745D01*
X82470Y76670D01*
X82459Y76592D01*
X82460Y76513D01*
X82473Y76436D01*
X82499Y76361D01*
X82535Y76292D01*
X82583Y76229D01*
X82639Y76174D01*
X82704Y76130D01*
X83056Y75936D01*
X83426Y75779D01*
X83809Y75656D01*
X84200Y75567D01*
X84599Y75513D01*
X85000Y75496D01*
X85002Y75496D01*
Y1500D01*
X81280D01*
Y77540D01*
X81290Y77532D01*
X81360Y77496D01*
X81435Y77470D01*
X81513Y77456D01*
X81592Y77455D01*
X81671Y77467D01*
X81746Y77490D01*
X81817Y77525D01*
X81882Y77571D01*
X81939Y77626D01*
X81987Y77689D01*
X82024Y77759D01*
X82049Y77834D01*
X82063Y77912D01*
X82064Y77992D01*
X82052Y78070D01*
X82029Y78146D01*
X81993Y78216D01*
X81843Y78490D01*
X81721Y78777D01*
X81625Y79074D01*
X81556Y79379D01*
X81514Y79688D01*
X81500Y80000D01*
X81514Y80312D01*
X81556Y80621D01*
X81625Y80926D01*
X81721Y81223D01*
X81843Y81510D01*
X81990Y81786D01*
X82026Y81855D01*
X82049Y81931D01*
X82060Y82009D01*
X82059Y82087D01*
X82046Y82165D01*
X82020Y82239D01*
X81984Y82309D01*
X81936Y82372D01*
X81880Y82427D01*
X81816Y82472D01*
X81745Y82507D01*
X81670Y82530D01*
X81592Y82541D01*
X81513Y82540D01*
X81436Y82527D01*
X81361Y82501D01*
X81292Y82465D01*
X81280Y82456D01*
Y85679D01*
X81395Y85707D01*
X82049Y85978D01*
X82653Y86348D01*
X83192Y86808D01*
X83652Y87347D01*
X84022Y87951D01*
X84293Y88605D01*
X84458Y89294D01*
X84500Y90000D01*
X84458Y90706D01*
X84293Y91395D01*
X84022Y92049D01*
X83652Y92653D01*
X83192Y93192D01*
X82653Y93652D01*
X82049Y94022D01*
X81395Y94293D01*
X81280Y94321D01*
Y95750D01*
G37*
G36*
Y123000D02*X85002D01*
Y104750D01*
X81280D01*
Y123000D01*
G37*
G36*
X74993Y95750D02*X81280D01*
Y94321D01*
X80706Y94458D01*
X80000Y94514D01*
X79294Y94458D01*
X78605Y94293D01*
X77951Y94022D01*
X77347Y93652D01*
X76808Y93192D01*
X76348Y92653D01*
X75978Y92049D01*
X75707Y91395D01*
X75542Y90706D01*
X75486Y90000D01*
X75542Y89294D01*
X75707Y88605D01*
X75978Y87951D01*
X76348Y87347D01*
X76808Y86808D01*
X77347Y86348D01*
X77951Y85978D01*
X78605Y85707D01*
X79294Y85542D01*
X80000Y85486D01*
X80706Y85542D01*
X81280Y85679D01*
Y82456D01*
X81229Y82417D01*
X81174Y82361D01*
X81130Y82296D01*
X80936Y81944D01*
X80779Y81574D01*
X80656Y81191D01*
X80567Y80800D01*
X80513Y80401D01*
X80496Y80000D01*
X80513Y79599D01*
X80567Y79200D01*
X80656Y78809D01*
X80779Y78426D01*
X80936Y78056D01*
X81126Y77702D01*
X81171Y77637D01*
X81226Y77580D01*
X81280Y77540D01*
Y1500D01*
X74993D01*
Y75487D01*
X75000Y75486D01*
X75706Y75542D01*
X76395Y75707D01*
X77049Y75978D01*
X77653Y76348D01*
X78192Y76808D01*
X78652Y77347D01*
X79022Y77951D01*
X79293Y78605D01*
X79458Y79294D01*
X79500Y80000D01*
X79458Y80706D01*
X79293Y81395D01*
X79022Y82049D01*
X78652Y82653D01*
X78192Y83192D01*
X77653Y83652D01*
X77049Y84022D01*
X76395Y84293D01*
X75706Y84458D01*
X75000Y84514D01*
X74993Y84513D01*
Y95750D01*
G37*
G36*
Y123000D02*X81280D01*
Y104750D01*
X74993D01*
Y123000D01*
G37*
G36*
X68720Y85679D02*X69294Y85542D01*
X70000Y85486D01*
X70706Y85542D01*
X71395Y85707D01*
X72049Y85978D01*
X72653Y86348D01*
X73192Y86808D01*
X73652Y87347D01*
X74022Y87951D01*
X74293Y88605D01*
X74458Y89294D01*
X74500Y90000D01*
X74458Y90706D01*
X74293Y91395D01*
X74022Y92049D01*
X73652Y92653D01*
X73192Y93192D01*
X72653Y93652D01*
X72250Y93899D01*
Y94568D01*
X73432Y95750D01*
X74993D01*
Y84513D01*
X74294Y84458D01*
X73605Y84293D01*
X72951Y84022D01*
X72347Y83652D01*
X71808Y83192D01*
X71348Y82653D01*
X70978Y82049D01*
X70707Y81395D01*
X70542Y80706D01*
X70486Y80000D01*
X70542Y79294D01*
X70707Y78605D01*
X70978Y77951D01*
X71348Y77347D01*
X71808Y76808D01*
X72347Y76348D01*
X72951Y75978D01*
X73605Y75707D01*
X74294Y75542D01*
X74993Y75487D01*
Y1500D01*
X68720D01*
Y77544D01*
X68771Y77583D01*
X68826Y77639D01*
X68870Y77704D01*
X69064Y78056D01*
X69221Y78426D01*
X69344Y78809D01*
X69433Y79200D01*
X69487Y79599D01*
X69504Y80000D01*
X69487Y80401D01*
X69433Y80800D01*
X69344Y81191D01*
X69221Y81574D01*
X69064Y81944D01*
X68874Y82298D01*
X68829Y82363D01*
X68774Y82420D01*
X68720Y82460D01*
Y85679D01*
G37*
G36*
Y100250D02*X72412D01*
X72147Y100229D01*
X71803Y100146D01*
X71475Y100011D01*
X71173Y99826D01*
X71173Y99826D01*
X70904Y99596D01*
X70847Y99529D01*
X68720Y97402D01*
Y100250D01*
G37*
G36*
X65002Y99820D02*X65432Y100250D01*
X68720D01*
Y97402D01*
X68471Y97153D01*
X68404Y97096D01*
X68174Y96827D01*
X67989Y96525D01*
X67854Y96197D01*
X67771Y95853D01*
X67771Y95853D01*
X67743Y95500D01*
X67750Y95412D01*
Y93899D01*
X67347Y93652D01*
X66808Y93192D01*
X66348Y92653D01*
X65978Y92049D01*
X65707Y91395D01*
X65542Y90706D01*
X65486Y90000D01*
X65542Y89294D01*
X65707Y88605D01*
X65978Y87951D01*
X66348Y87347D01*
X66808Y86808D01*
X67347Y86348D01*
X67951Y85978D01*
X68605Y85707D01*
X68720Y85679D01*
Y82460D01*
X68710Y82468D01*
X68640Y82504D01*
X68565Y82530D01*
X68487Y82544D01*
X68408Y82545D01*
X68329Y82533D01*
X68254Y82510D01*
X68183Y82475D01*
X68118Y82429D01*
X68061Y82374D01*
X68013Y82311D01*
X67976Y82241D01*
X67951Y82166D01*
X67937Y82088D01*
X67936Y82008D01*
X67948Y81930D01*
X67971Y81854D01*
X68007Y81784D01*
X68157Y81510D01*
X68279Y81223D01*
X68375Y80926D01*
X68444Y80621D01*
X68486Y80312D01*
X68500Y80000D01*
X68486Y79688D01*
X68444Y79379D01*
X68375Y79074D01*
X68279Y78777D01*
X68157Y78490D01*
X68010Y78214D01*
X67974Y78145D01*
X67951Y78069D01*
X67940Y77991D01*
X67941Y77913D01*
X67954Y77835D01*
X67980Y77761D01*
X68016Y77691D01*
X68064Y77628D01*
X68120Y77573D01*
X68184Y77528D01*
X68255Y77493D01*
X68330Y77470D01*
X68408Y77459D01*
X68487Y77460D01*
X68564Y77473D01*
X68639Y77499D01*
X68708Y77535D01*
X68720Y77544D01*
Y1500D01*
X65002D01*
Y75496D01*
X65401Y75513D01*
X65800Y75567D01*
X66191Y75656D01*
X66574Y75779D01*
X66944Y75936D01*
X67298Y76126D01*
X67363Y76171D01*
X67420Y76226D01*
X67468Y76290D01*
X67504Y76360D01*
X67530Y76435D01*
X67544Y76513D01*
X67545Y76592D01*
X67533Y76671D01*
X67510Y76746D01*
X67475Y76817D01*
X67429Y76882D01*
X67374Y76939D01*
X67311Y76987D01*
X67241Y77024D01*
X67166Y77049D01*
X67088Y77063D01*
X67008Y77064D01*
X66930Y77052D01*
X66854Y77029D01*
X66784Y76993D01*
X66510Y76843D01*
X66223Y76721D01*
X65926Y76625D01*
X65621Y76556D01*
X65312Y76514D01*
X65002Y76500D01*
Y83500D01*
X65312Y83486D01*
X65621Y83444D01*
X65926Y83375D01*
X66223Y83279D01*
X66510Y83157D01*
X66786Y83010D01*
X66855Y82974D01*
X66931Y82951D01*
X67009Y82940D01*
X67087Y82941D01*
X67165Y82954D01*
X67239Y82980D01*
X67309Y83016D01*
X67372Y83064D01*
X67427Y83120D01*
X67472Y83184D01*
X67507Y83255D01*
X67530Y83330D01*
X67541Y83408D01*
X67540Y83487D01*
X67527Y83564D01*
X67501Y83639D01*
X67465Y83708D01*
X67417Y83771D01*
X67361Y83826D01*
X67296Y83870D01*
X66944Y84064D01*
X66574Y84221D01*
X66191Y84344D01*
X65800Y84433D01*
X65401Y84487D01*
X65002Y84504D01*
Y99820D01*
G37*
G36*
Y123000D02*X74993D01*
Y104750D01*
X65002D01*
Y123000D01*
G37*
G36*
X61280Y85679D02*X61395Y85707D01*
X62049Y85978D01*
X62653Y86348D01*
X63192Y86808D01*
X63652Y87347D01*
X64022Y87951D01*
X64293Y88605D01*
X64458Y89294D01*
X64500Y90000D01*
X64458Y90706D01*
X64293Y91395D01*
X64022Y92049D01*
X63652Y92653D01*
X63192Y93192D01*
X62653Y93652D01*
X62250Y93899D01*
Y97068D01*
X65002Y99820D01*
Y84504D01*
X65000Y84504D01*
X64599Y84487D01*
X64200Y84433D01*
X63809Y84344D01*
X63426Y84221D01*
X63056Y84064D01*
X62702Y83874D01*
X62637Y83829D01*
X62580Y83774D01*
X62532Y83710D01*
X62496Y83640D01*
X62470Y83565D01*
X62456Y83487D01*
X62455Y83408D01*
X62467Y83329D01*
X62490Y83254D01*
X62525Y83183D01*
X62571Y83118D01*
X62626Y83061D01*
X62689Y83013D01*
X62759Y82976D01*
X62834Y82951D01*
X62912Y82937D01*
X62992Y82936D01*
X63070Y82948D01*
X63146Y82971D01*
X63216Y83007D01*
X63490Y83157D01*
X63777Y83279D01*
X64074Y83375D01*
X64379Y83444D01*
X64688Y83486D01*
X65000Y83500D01*
X65002Y83500D01*
Y76500D01*
X65000Y76500D01*
X64688Y76514D01*
X64379Y76556D01*
X64074Y76625D01*
X63777Y76721D01*
X63490Y76843D01*
X63214Y76990D01*
X63145Y77026D01*
X63069Y77049D01*
X62991Y77060D01*
X62913Y77059D01*
X62835Y77046D01*
X62761Y77020D01*
X62691Y76984D01*
X62628Y76936D01*
X62573Y76880D01*
X62528Y76816D01*
X62493Y76745D01*
X62470Y76670D01*
X62459Y76592D01*
X62460Y76513D01*
X62473Y76436D01*
X62499Y76361D01*
X62535Y76292D01*
X62583Y76229D01*
X62639Y76174D01*
X62704Y76130D01*
X63056Y75936D01*
X63426Y75779D01*
X63809Y75656D01*
X64200Y75567D01*
X64599Y75513D01*
X65000Y75496D01*
X65002Y75496D01*
Y1500D01*
X61280D01*
Y77540D01*
X61290Y77532D01*
X61360Y77496D01*
X61435Y77470D01*
X61513Y77456D01*
X61592Y77455D01*
X61671Y77467D01*
X61746Y77490D01*
X61817Y77525D01*
X61882Y77571D01*
X61939Y77626D01*
X61987Y77689D01*
X62024Y77759D01*
X62049Y77834D01*
X62063Y77912D01*
X62064Y77992D01*
X62052Y78070D01*
X62029Y78146D01*
X61993Y78216D01*
X61843Y78490D01*
X61721Y78777D01*
X61625Y79074D01*
X61556Y79379D01*
X61514Y79688D01*
X61500Y80000D01*
X61514Y80312D01*
X61556Y80621D01*
X61625Y80926D01*
X61721Y81223D01*
X61843Y81510D01*
X61990Y81786D01*
X62026Y81855D01*
X62049Y81931D01*
X62060Y82009D01*
X62059Y82087D01*
X62046Y82165D01*
X62020Y82239D01*
X61984Y82309D01*
X61936Y82372D01*
X61880Y82427D01*
X61816Y82472D01*
X61745Y82507D01*
X61670Y82530D01*
X61592Y82541D01*
X61513Y82540D01*
X61436Y82527D01*
X61361Y82501D01*
X61292Y82465D01*
X61280Y82456D01*
Y85679D01*
G37*
G36*
Y123000D02*X65002D01*
Y104750D01*
X64588D01*
X64500Y104757D01*
X64147Y104729D01*
X63803Y104646D01*
X63475Y104511D01*
X63173Y104326D01*
X63173Y104326D01*
X62904Y104096D01*
X62847Y104029D01*
X61280Y102462D01*
Y123000D01*
G37*
G36*
X54993Y108481D02*X55816Y109184D01*
X56654Y110165D01*
X57329Y111266D01*
X57823Y112458D01*
X58124Y113713D01*
X58200Y115000D01*
X58124Y116287D01*
X57823Y117542D01*
X57329Y118734D01*
X56654Y119835D01*
X55816Y120816D01*
X54993Y121519D01*
Y123000D01*
X61280D01*
Y102462D01*
X58471Y99653D01*
X58404Y99596D01*
X58174Y99327D01*
X57989Y99025D01*
X57854Y98697D01*
X57771Y98353D01*
X57771Y98353D01*
X57743Y98000D01*
X57750Y97912D01*
Y93899D01*
X57347Y93652D01*
X56808Y93192D01*
X56348Y92653D01*
X55978Y92049D01*
X55707Y91395D01*
X55542Y90706D01*
X55486Y90000D01*
X55542Y89294D01*
X55707Y88605D01*
X55978Y87951D01*
X56348Y87347D01*
X56808Y86808D01*
X57347Y86348D01*
X57951Y85978D01*
X58605Y85707D01*
X59294Y85542D01*
X60000Y85486D01*
X60706Y85542D01*
X61280Y85679D01*
Y82456D01*
X61229Y82417D01*
X61174Y82361D01*
X61130Y82296D01*
X60936Y81944D01*
X60779Y81574D01*
X60656Y81191D01*
X60567Y80800D01*
X60513Y80401D01*
X60496Y80000D01*
X60513Y79599D01*
X60567Y79200D01*
X60656Y78809D01*
X60779Y78426D01*
X60936Y78056D01*
X61126Y77702D01*
X61171Y77637D01*
X61226Y77580D01*
X61280Y77540D01*
Y1500D01*
X54993D01*
Y75487D01*
X55000Y75486D01*
X55706Y75542D01*
X56395Y75707D01*
X57049Y75978D01*
X57653Y76348D01*
X58192Y76808D01*
X58652Y77347D01*
X59022Y77951D01*
X59293Y78605D01*
X59458Y79294D01*
X59500Y80000D01*
X59458Y80706D01*
X59293Y81395D01*
X59022Y82049D01*
X58652Y82653D01*
X58192Y83192D01*
X57653Y83652D01*
X57049Y84022D01*
X56395Y84293D01*
X55706Y84458D01*
X55000Y84514D01*
X54993Y84513D01*
Y108481D01*
G37*
G36*
Y121519D02*X54835Y121654D01*
X53734Y122329D01*
X52542Y122823D01*
X51803Y123000D01*
X54993D01*
Y121519D01*
G37*
G36*
X21705Y123000D02*X48197D01*
X47458Y122823D01*
X46266Y122329D01*
X45165Y121654D01*
X44184Y120816D01*
X43346Y119835D01*
X42671Y118734D01*
X42177Y117542D01*
X41876Y116287D01*
X41775Y115000D01*
X41876Y113713D01*
X42177Y112458D01*
X42671Y111266D01*
X43346Y110165D01*
X44184Y109184D01*
X45165Y108346D01*
X46266Y107671D01*
X47458Y107177D01*
X48713Y106876D01*
X50000Y106775D01*
X51287Y106876D01*
X52542Y107177D01*
X53734Y107671D01*
X54835Y108346D01*
X54993Y108481D01*
Y84513D01*
X54294Y84458D01*
X53605Y84293D01*
X52951Y84022D01*
X52347Y83652D01*
X51808Y83192D01*
X51348Y82653D01*
X50978Y82049D01*
X50707Y81395D01*
X50542Y80706D01*
X50486Y80000D01*
X50542Y79294D01*
X50707Y78605D01*
X50978Y77951D01*
X51348Y77347D01*
X51808Y76808D01*
X52347Y76348D01*
X52951Y75978D01*
X53605Y75707D01*
X54294Y75542D01*
X54993Y75487D01*
Y1500D01*
X19622D01*
X21862Y2038D01*
X24142Y2982D01*
X26247Y4272D01*
X28124Y5876D01*
X29728Y7753D01*
X31018Y9858D01*
X31962Y12138D01*
X32539Y14539D01*
X32684Y17000D01*
X32539Y19461D01*
X31962Y21862D01*
X31018Y24142D01*
X29728Y26247D01*
X28124Y28124D01*
X26247Y29728D01*
X24142Y31018D01*
X21862Y31962D01*
X19461Y32539D01*
X17000Y32732D01*
X14539Y32539D01*
X12138Y31962D01*
X9858Y31018D01*
X7753Y29728D01*
X5876Y28124D01*
X4272Y26247D01*
X2982Y24142D01*
X2038Y21862D01*
X2000Y21705D01*
Y103295D01*
X2038Y103138D01*
X2982Y100858D01*
X4272Y98753D01*
X5876Y96876D01*
X7753Y95272D01*
X9858Y93982D01*
X12138Y93038D01*
X14539Y92461D01*
X17000Y92268D01*
X19461Y92461D01*
X21862Y93038D01*
X24142Y93982D01*
X26247Y95272D01*
X28124Y96876D01*
X29728Y98753D01*
X31018Y100858D01*
X31962Y103138D01*
X32539Y105539D01*
X32684Y108000D01*
X32539Y110461D01*
X31962Y112862D01*
X31018Y115142D01*
X29728Y117247D01*
X28124Y119124D01*
X26247Y120728D01*
X24142Y122018D01*
X21862Y122962D01*
X21705Y123000D01*
G37*
G54D23*X70000Y90000D02*Y95500D01*
X72500Y98000D01*
X78500D01*
X60000Y90000D02*Y98000D01*
X73500D02*X122000D01*
X125000Y95000D01*
Y90000D01*
X60000Y98000D02*X64500Y102500D01*
X115000D01*
X106500Y65000D02*X110000D01*
Y80000D01*
G54D24*X17000Y17000D03*
Y108000D03*
X183000D03*
Y17000D03*
G54D25*X145000Y90000D03*
X140000Y80000D03*
X135000Y90000D03*
G54D26*X150000Y115000D03*
G54D25*X130000Y80000D03*
X125000Y90000D03*
X120000Y80000D03*
X110000D03*
X85000D03*
X75000D03*
X65000D03*
X55000D03*
X115000Y90000D03*
X90000D03*
X80000D03*
X70000D03*
X60000D03*
G54D26*X50000Y115000D03*
G54D27*X83500Y21500D03*
X80000D03*
X46000Y52000D03*
Y47500D03*
Y43000D03*
X115000Y102500D03*
X111500D03*
X110000Y65000D03*
X106500D03*
X160000Y64500D03*
X166500Y67500D03*
X163000D03*
X186500Y74000D03*
Y83500D03*
X160000Y60000D03*
X156500D03*
X160000Y55500D03*
X156500D03*
X166500Y52500D03*
X163000D03*
X186500Y38000D03*
Y47500D03*
X156500Y64500D03*
G54D28*G54D29*G54D30*G54D31*G54D30*G54D31*M02*
