M48
INCH
T36C0.012
T35C0.128
T34C0.035
T33C0.129
%
T36
X004600Y005200
X004600Y004750
X004600Y004300
X008000Y002150
X008350Y002150
X010650Y006500
X011000Y006500
X011150Y010250
X011500Y010250
X015650Y006450
X015650Y006000
X015650Y005550
X016000Y006450
X016000Y006000
X016000Y005550
X016300Y006750
X016300Y005250
X016650Y006750
X016650Y005250
X018650Y008350
X018650Y007400
X018650Y004750
X018650Y003800
T34
X005500Y008000
X006000Y009000
X006500Y008000
X007000Y009000
X007500Y008000
X008000Y009000
X008500Y008000
X009000Y009000
X011000Y008000
X011500Y009000
X012000Y008000
X012500Y009000
X013000Y008000
X013500Y009000
X014000Y008000
X014500Y009000
T35
X005000Y011500
X015000Y011500
T33
X001700Y010800
X001700Y001700
X018300Y010800
X018300Y001700
M30
